<svg xmlns="http://www.w3.org/2000/svg" width="451" height="130" viewBox="0 0 451 130">
<g shape-rendering="geometricPrecision">
<!-- === MAIN LOGO "ÉCOLE T3P" — original traced paths === -->
<!-- Shadow layer (darkest) -->
<path d="M 166.00 32.50 L 157.50 33.50 L 151.00 36.33 L 144.83 43.00 L 141.67 51.67 L 141.33 63.17 L 143.50 70.83 L 150.83 79.17 L 158.17 82.00 L 170.67 82.00 L 178.67 78.17 L 184.17 72.00 L 187.33 61.83 L 186.50 49.17 L 182.50 40.83 L 175.67 35.17 Z" fill="#0E2A1D"/>
<path d="M 104.67 33.67 L 95.17 39.67 L 90.83 46.50 L 89.00 56.17 L 90.67 69.83 L 96.33 77.67 L 101.83 80.83 L 111.17 82.67 L 120.33 82.00 L 128.83 76.50 L 133.33 67.83 L 126.00 67.17 L 121.33 73.50 L 115.50 76.17 L 106.00 75.00 L 100.33 70.50 L 97.67 65.00 L 97.83 50.33 L 102.83 42.17 L 109.50 39.00 L 118.83 40.67 L 124.83 48.17 L 131.67 47.33 L 132.83 45.67 L 128.83 39.17 L 123.33 35.00 L 113.50 32.83 Z" fill="#0E2A1D"/>
<path d="M 199.50 34.17 L 199.00 81.50 L 230.83 81.67 L 230.50 75.00 L 207.50 74.17 L 206.83 35.17 Z" fill="#0E2A1D"/>
<path d="M 238.33 35.50 L 238.33 40.50 L 239.83 41.33 L 269.83 41.67 L 271.67 39.83 L 270.33 33.83 L 239.83 33.83 Z" fill="#0E2A1D"/>
<path d="M 81.50 75.50 L 46.67 75.00 L 45.83 79.83 L 46.83 82.00 L 80.67 82.00 Z" fill="#0E2A1D"/>
<path d="M 46.00 34.83 L 47.00 41.00 L 79.67 41.17 L 80.83 38.83 L 79.50 33.83 Z" fill="#0E2A1D"/>
<path d="M 272.17 76.00 L 239.00 75.17 L 238.33 80.83 L 243.33 82.17 L 270.83 82.17 Z" fill="#0E2A1D"/>
<path d="M 237.83 56.67 L 239.17 61.83 L 267.17 61.17 L 267.17 56.00 L 265.67 54.83 L 239.00 54.83 Z" fill="#0E2A1D"/>
<path d="M 46.17 55.00 L 46.67 61.33 L 74.67 60.50 L 73.83 54.50 Z" fill="#0E2A1D"/>
<path d="M 77.83 15.50 L 70.50 15.50 L 63.17 28.17 L 68.00 27.00 Z" fill="#0E2A1D"/>
<!-- Gold T3P -->
<path d="M 430.83 37.83 L 421.33 34.67 L 395.83 35.67 L 396.50 82.00 L 403.50 81.33 L 404.83 64.00 L 421.67 63.50 L 431.50 59.67 L 434.00 55.83 L 435.50 46.83 Z" fill="#906615"/>
<path d="M 346.33 35.17 L 345.67 38.50 L 347.00 41.33 L 368.50 41.33 L 373.00 42.83 L 357.33 61.67 L 371.67 66.00 L 376.17 70.33 L 377.33 75.50 L 374.33 82.00 L 366.33 85.67 L 354.67 84.33 L 346.50 77.83 L 340.50 79.33 L 340.50 82.17 L 345.17 87.83 L 354.67 92.33 L 363.50 93.67 L 376.67 90.83 L 384.67 81.83 L 386.00 70.83 L 383.00 64.67 L 372.67 58.17 L 372.00 56.17 L 384.33 43.00 L 384.00 35.67 L 379.17 34.50 Z" fill="#906615"/>
<path d="M 298.33 35.00 L 298.67 40.83 L 311.83 41.67 L 314.00 43.67 L 314.33 81.17 L 321.50 81.83 L 322.83 43.50 L 324.33 41.83 L 337.50 41.17 L 337.83 35.17 Z" fill="#906615"/>
<!-- Mid layer -->
<path d="M 163.33 31.83 L 153.00 34.33 L 146.17 39.67 L 141.17 49.83 L 140.33 62.33 L 142.50 70.67 L 148.33 78.50 L 156.83 82.50 L 165.50 83.50 L 173.67 81.83 L 179.17 78.83 L 183.33 74.67 L 187.33 66.17 L 188.17 54.33 L 186.50 46.50 L 181.00 38.00 L 173.17 33.33 Z" fill="#757A6F"/>
<path d="M 429.50 36.33 L 423.83 34.33 L 395.17 35.00 L 395.67 82.67 L 404.33 81.83 L 405.33 64.17 L 422.67 64.00 L 429.50 61.83 L 433.83 57.67 L 435.83 52.00 L 435.67 45.00 L 434.00 40.33 Z" fill="#757A6F"/>
<path d="M 345.67 34.50 L 346.00 41.83 L 370.00 41.83 L 372.83 42.83 L 372.50 44.50 L 356.83 59.50 L 356.33 61.83 L 358.17 63.83 L 371.17 66.17 L 376.00 70.83 L 377.00 75.33 L 375.00 80.83 L 368.67 84.83 L 362.33 85.33 L 355.17 84.00 L 351.33 81.83 L 346.67 76.67 L 340.33 78.50 L 340.17 82.50 L 348.00 90.33 L 357.83 93.83 L 369.00 93.83 L 376.83 91.17 L 381.50 87.33 L 385.17 82.00 L 386.67 76.50 L 386.50 70.17 L 382.67 63.33 L 372.83 58.00 L 372.17 56.50 L 384.83 43.17 L 384.67 34.83 Z" fill="#757A6F"/>
<path d="M 107.83 32.17 L 100.33 34.50 L 92.00 42.17 L 88.67 51.33 L 89.00 67.00 L 92.33 74.17 L 97.50 79.67 L 109.17 83.50 L 120.50 82.83 L 129.33 77.17 L 134.33 67.50 L 125.67 66.33 L 123.50 70.17 L 118.00 74.67 L 111.50 75.67 L 106.33 74.33 L 101.17 70.33 L 97.83 61.67 L 98.50 51.00 L 101.17 45.17 L 109.67 39.83 L 114.67 39.83 L 119.00 41.67 L 124.50 49.00 L 131.83 48.17 L 133.83 46.17 L 130.67 40.17 L 124.33 34.67 L 115.50 32.17 Z" fill="#757A6F"/>
<path d="M 337.50 34.00 L 300.00 34.17 L 297.33 35.33 L 298.17 41.67 L 312.33 42.00 L 313.67 43.50 L 314.50 82.67 L 323.00 81.83 L 323.33 43.33 L 324.67 42.00 L 338.00 41.67 Z" fill="#757A6F"/>
<path d="M 198.67 33.50 L 198.00 81.83 L 231.50 82.33 L 232.17 75.67 L 231.00 74.17 L 208.17 73.67 L 207.67 34.83 L 206.00 33.17 Z" fill="#757A6F"/>
<path d="M 45.17 34.83 L 45.33 40.67 L 46.67 41.83 L 80.17 42.00 L 81.50 40.33 L 81.33 34.00 L 79.83 33.00 L 46.67 33.00 Z" fill="#757A6F"/>
<path d="M 237.67 34.50 L 237.67 41.00 L 238.67 42.17 L 271.00 42.33 L 272.33 41.17 L 272.50 35.33 L 270.83 33.00 L 239.00 33.00 Z" fill="#757A6F"/>
<path d="M 45.33 75.67 L 45.17 81.17 L 46.50 82.67 L 82.17 81.83 L 81.50 74.00 L 47.00 74.00 Z" fill="#757A6F"/>
<path d="M 237.67 75.33 L 237.67 81.67 L 238.67 82.67 L 271.67 82.83 L 272.83 81.83 L 272.83 75.33 L 271.33 74.17 L 239.17 74.17 Z" fill="#757A6F"/>
<path d="M 237.00 55.83 L 238.17 62.50 L 267.00 62.50 L 268.00 61.50 L 268.00 55.50 L 266.17 54.00 L 238.83 54.00 Z" fill="#757A6F"/>
<path d="M 45.33 55.33 L 45.33 60.33 L 46.67 62.17 L 73.83 62.17 L 75.67 60.67 L 75.50 54.67 L 74.17 53.67 L 46.50 53.67 Z" fill="#757A6F"/>
<path d="M 78.83 15.33 L 69.83 15.00 L 62.17 28.50 L 68.67 27.50 Z" fill="#757A6F"/>
<!-- Highlight layer -->
<path d="M 163.50 31.17 L 154.83 32.83 L 146.00 38.67 L 140.67 49.00 L 139.50 61.00 L 142.17 71.67 L 147.33 78.67 L 155.50 82.83 L 166.00 84.17 L 177.67 80.67 L 184.00 75.00 L 188.00 66.67 L 188.83 53.50 L 186.83 45.17 L 181.33 37.33 L 170.67 31.83 Z" fill="#BEBEAF"/>
<path d="M 345.33 33.33 L 344.17 36.00 L 345.50 42.83 L 371.17 43.50 L 355.83 58.83 L 355.17 61.00 L 357.83 64.83 L 368.67 66.17 L 372.00 68.00 L 375.33 72.00 L 375.83 77.00 L 371.67 82.33 L 363.00 84.33 L 354.17 82.50 L 348.50 76.17 L 346.17 75.50 L 340.33 77.33 L 338.50 79.17 L 339.67 83.67 L 346.50 90.67 L 356.83 94.67 L 370.00 94.67 L 377.50 91.83 L 381.67 88.67 L 385.83 83.00 L 387.50 71.33 L 384.00 63.17 L 373.50 56.33 L 385.67 43.83 L 385.50 34.00 Z" fill="#BEBEAF"/>
<path d="M 430.33 35.67 L 420.50 33.17 L 394.50 34.00 L 394.67 83.17 L 403.17 83.67 L 405.33 82.50 L 406.00 65.17 L 423.50 64.83 L 429.67 62.83 L 434.67 58.33 L 436.83 51.50 L 436.50 44.17 L 434.50 39.17 Z" fill="#BEBEAF"/>
<path d="M 106.83 31.67 L 101.50 33.17 L 96.00 36.67 L 90.33 43.83 L 87.50 54.67 L 88.50 67.83 L 93.00 76.17 L 100.33 81.83 L 111.17 84.33 L 121.83 83.17 L 127.33 80.00 L 131.67 75.50 L 134.67 70.00 L 134.83 67.00 L 125.83 65.50 L 122.67 70.00 L 117.33 74.17 L 107.83 74.17 L 102.33 70.50 L 99.67 66.00 L 98.33 58.83 L 99.00 51.83 L 103.50 43.83 L 110.67 40.50 L 115.00 40.67 L 119.50 42.83 L 124.00 49.67 L 133.33 48.50 L 134.67 46.17 L 131.00 39.50 L 125.33 34.33 L 115.33 31.33 Z" fill="#BEBEAF"/>
<path d="M 297.50 33.67 L 296.50 39.00 L 297.67 42.50 L 312.67 44.00 L 313.17 82.83 L 323.50 83.00 L 324.33 44.00 L 326.00 43.00 L 338.33 42.67 L 338.83 33.83 Z" fill="#BEBEAF"/>
<path d="M 198.00 33.00 L 197.17 82.17 L 199.17 83.17 L 232.50 82.67 L 233.00 75.67 L 231.33 73.33 L 208.50 72.83 L 208.17 33.67 L 205.83 32.50 Z" fill="#BEBEAF"/>
<path d="M 44.33 34.50 L 44.50 40.83 L 45.83 42.50 L 80.33 42.83 L 82.17 41.17 L 82.17 33.83 L 79.83 32.33 L 45.33 32.67 Z" fill="#BEBEAF"/>
<path d="M 236.83 34.33 L 237.00 41.33 L 238.33 43.00 L 270.83 43.17 L 273.17 41.17 L 273.17 34.67 L 271.33 32.33 L 239.17 32.17 Z" fill="#BEBEAF"/>
<path d="M 44.50 75.50 L 44.33 81.50 L 46.17 83.17 L 81.17 83.33 L 82.83 82.00 L 82.83 74.50 L 81.17 73.17 L 45.33 73.67 Z" fill="#BEBEAF"/>
<path d="M 236.67 75.33 L 236.67 81.83 L 239.00 83.33 L 271.83 83.50 L 273.67 81.83 L 273.50 75.17 L 271.83 73.33 L 239.00 73.33 Z" fill="#BEBEAF"/>
<path d="M 236.17 55.67 L 236.50 62.00 L 238.50 63.33 L 267.33 63.33 L 268.83 61.17 L 268.83 55.33 L 267.17 53.33 L 238.00 53.50 Z" fill="#BEBEAF"/>
<path d="M 44.50 55.33 L 44.50 60.50 L 46.17 62.83 L 74.83 62.83 L 76.33 61.00 L 76.33 54.33 L 74.50 52.83 L 46.67 52.83 Z" fill="#BEBEAF"/>
<path d="M 79.67 15.17 L 77.83 14.00 L 69.50 14.33 L 61.33 28.67 L 64.50 29.67 L 69.33 27.83 Z" fill="#BEBEAF"/>
</g>
<!-- === TAGLINE — clean SVG text === -->
<text x="225" y="112" text-anchor="middle" font-family="'Poppins', 'Arial', sans-serif" font-weight="600" font-size="13" letter-spacing="4" fill="#5A5E54">CENTRE DE FORMATION AGRÉÉ</text>
</svg>