<svg xmlns="http://www.w3.org/2000/svg" viewBox="120 66 530 142">
  <path d="M 409.00 132.00 L 409.00 136.75 L 409.75 136.75 L 410.00 137.75 L 442.75 137.75 L 442.75 131.00 L 410.00 131.00 L 410.00 131.75 Z" fill="#0E3B2E" fill-rule="evenodd"/>
  <path d="M 217.00 131.00 L 217.00 137.75 L 252.75 137.75 L 252.75 131.00 Z" fill="#0E3B2E" fill-rule="evenodd"/>
  <path d="M 409.00 111.00 L 409.00 117.75 L 437.75 117.75 L 437.75 111.00 Z" fill="#0E3B2E" fill-rule="evenodd"/>
  <path d="M 217.00 111.00 L 217.00 116.75 L 217.75 116.75 L 218.00 117.75 L 226.75 117.75 L 227.00 116.75 L 237.75 116.75 L 238.00 117.75 L 238.75 117.75 L 239.00 116.75 L 243.75 116.75 L 244.00 117.75 L 244.75 117.75 L 244.75 117.00 L 245.75 116.75 L 245.75 111.00 L 245.00 111.00 L 244.75 110.00 L 218.00 110.00 L 218.00 110.75 Z" fill="#0E3B2E" fill-rule="evenodd"/>
  <path d="M 409.00 91.00 L 409.00 96.75 L 410.75 96.75 L 411.00 97.75 L 441.75 97.75 L 441.75 97.00 L 442.75 96.75 L 442.75 91.00 L 442.00 91.00 L 441.75 90.00 L 410.00 90.00 L 410.00 90.75 Z" fill="#0E3B2E" fill-rule="evenodd"/>
  <path d="M 370.00 90.00 L 370.00 137.75 L 401.75 137.75 L 401.75 131.00 L 379.00 131.00 L 378.75 130.00 L 377.75 129.75 L 377.75 90.00 Z" fill="#0E3B2E" fill-rule="evenodd"/>
  <path d="M 217.00 90.00 L 217.00 96.75 L 251.75 96.75 L 251.75 90.00 Z" fill="#0E3B2E" fill-rule="evenodd"/>
  <path d="M 329.00 89.00 L 328.75 90.00 L 326.00 90.00 L 325.75 91.00 L 324.00 91.00 L 323.75 92.00 L 322.00 92.00 L 322.00 92.75 L 321.00 93.00 L 321.00 93.75 L 320.00 94.00 L 320.00 94.75 L 319.00 95.00 L 319.00 95.75 L 318.00 96.00 L 318.00 96.75 L 317.00 97.00 L 316.75 98.00 L 316.00 98.00 L 316.00 99.75 L 315.00 100.00 L 315.00 101.75 L 314.00 102.00 L 314.00 104.75 L 313.00 105.00 L 313.00 108.75 L 312.00 109.00 L 312.00 120.75 L 313.00 121.00 L 313.00 123.75 L 314.00 124.00 L 314.00 126.75 L 315.00 127.00 L 315.00 128.75 L 315.75 128.75 L 316.00 129.75 L 316.75 129.75 L 317.00 130.75 L 317.75 130.75 L 318.00 131.75 L 318.75 131.75 L 319.00 132.75 L 319.75 132.75 L 320.00 133.75 L 320.75 133.75 L 321.00 134.75 L 322.00 135.00 L 322.00 135.75 L 323.75 135.75 L 324.00 136.75 L 326.75 136.75 L 327.00 137.75 L 332.75 137.75 L 333.00 138.75 L 337.75 138.75 L 338.00 137.75 L 342.75 137.75 L 343.00 136.75 L 345.75 136.75 L 346.00 135.75 L 347.75 135.75 L 347.75 135.00 L 348.75 134.75 L 349.00 133.75 L 350.75 133.75 L 350.75 133.00 L 351.75 132.75 L 351.75 132.00 L 352.75 131.75 L 353.00 130.75 L 353.75 130.75 L 353.75 129.00 L 354.75 128.75 L 355.00 127.75 L 355.75 127.75 L 355.75 125.00 L 356.75 124.75 L 356.75 123.00 L 357.75 122.75 L 357.75 118.00 L 358.75 117.75 L 358.75 117.00 L 357.75 116.75 L 357.75 115.00 L 358.75 114.75 L 358.75 110.00 L 357.75 109.75 L 357.75 105.00 L 356.75 104.75 L 356.75 102.00 L 355.75 101.75 L 355.75 100.00 L 354.75 99.75 L 354.75 98.00 L 354.00 98.00 L 353.75 97.00 L 353.00 97.00 L 352.75 96.00 L 352.00 96.00 L 351.75 95.00 L 351.00 95.00 L 350.75 94.00 L 350.00 94.00 L 349.75 93.00 L 348.75 92.75 L 348.75 92.00 L 347.00 92.00 L 346.75 91.00 L 345.00 91.00 L 344.75 90.00 L 342.00 90.00 L 341.75 89.00 Z M 332.00 94.75 L 337.75 94.75 L 338.00 95.75 L 340.75 95.75 L 341.00 96.75 L 342.75 96.75 L 343.00 97.75 L 344.00 98.00 L 344.00 98.75 L 345.75 98.75 L 346.00 100.75 L 346.75 100.75 L 347.00 101.75 L 348.00 102.00 L 348.00 103.75 L 349.00 104.00 L 349.00 106.75 L 350.00 107.00 L 350.00 120.75 L 349.00 121.00 L 349.00 123.75 L 348.00 124.00 L 348.00 125.75 L 347.00 126.00 L 347.00 126.75 L 346.00 127.00 L 346.00 127.75 L 345.00 128.00 L 345.00 128.75 L 344.00 129.00 L 344.00 129.75 L 343.00 130.00 L 342.75 131.00 L 340.00 131.00 L 339.75 132.00 L 331.00 132.00 L 330.75 131.00 L 328.00 131.00 L 327.75 130.00 L 326.00 130.00 L 325.75 129.00 L 325.00 129.00 L 324.75 128.00 L 324.00 128.00 L 323.75 127.00 L 322.75 126.75 L 322.75 125.00 L 321.75 124.75 L 321.75 123.00 L 320.75 122.75 L 320.75 118.00 L 319.75 117.75 L 319.75 112.00 L 320.75 111.75 L 320.75 106.00 L 321.75 105.75 L 321.75 103.00 L 322.75 102.75 L 322.75 101.00 L 323.75 100.75 L 323.75 100.00 L 324.75 99.75 L 324.75 99.00 L 325.75 98.75 L 325.75 98.00 L 326.75 97.75 L 327.00 96.75 L 328.75 96.75 L 329.00 95.75 L 331.75 95.75 Z" fill="#0E3B2E" fill-rule="evenodd"/>
  <path d="M 271.00 91.00 L 271.00 91.75 L 270.00 92.00 L 270.00 92.75 L 269.00 93.00 L 268.75 94.00 L 267.00 94.00 L 267.00 94.75 L 266.00 95.00 L 265.75 96.00 L 265.00 96.00 L 265.00 97.75 L 264.00 98.00 L 263.75 99.00 L 263.00 99.00 L 263.00 100.75 L 262.00 101.00 L 262.00 103.75 L 261.00 104.00 L 261.00 106.75 L 260.00 107.00 L 260.00 121.75 L 261.00 122.00 L 261.00 124.75 L 262.00 125.00 L 262.00 126.75 L 263.00 127.00 L 263.00 128.75 L 264.00 129.00 L 264.00 130.75 L 264.75 130.75 L 265.00 131.75 L 265.75 131.75 L 266.00 132.75 L 266.75 132.75 L 267.00 133.75 L 268.00 134.00 L 268.00 134.75 L 269.75 134.75 L 270.00 135.75 L 271.75 135.75 L 272.00 136.75 L 274.75 136.75 L 275.00 137.75 L 278.75 137.75 L 279.00 138.75 L 288.75 138.75 L 289.00 137.75 L 292.75 137.75 L 293.00 136.75 L 294.75 136.75 L 295.00 135.75 L 296.75 135.75 L 296.75 135.00 L 297.75 134.75 L 297.75 134.00 L 298.75 133.75 L 298.75 133.00 L 299.75 132.75 L 299.75 132.00 L 300.75 131.75 L 301.00 130.75 L 301.75 130.75 L 301.75 129.00 L 302.75 128.75 L 303.00 127.75 L 303.75 127.75 L 303.75 125.00 L 304.75 124.75 L 304.75 124.00 L 304.00 124.00 L 303.75 123.00 L 297.00 123.00 L 297.00 123.75 L 296.00 124.00 L 296.00 125.75 L 295.00 126.00 L 295.00 126.75 L 294.00 127.00 L 294.00 127.75 L 293.00 128.00 L 293.00 128.75 L 292.00 129.00 L 292.00 129.75 L 291.00 130.00 L 290.75 131.00 L 288.00 131.00 L 287.75 132.00 L 279.00 132.00 L 278.75 131.00 L 276.00 131.00 L 275.75 130.00 L 275.00 130.00 L 274.75 129.00 L 274.00 129.00 L 273.75 128.00 L 273.00 128.00 L 272.75 127.00 L 272.00 127.00 L 271.75 126.00 L 271.00 126.00 L 270.75 125.00 L 269.75 124.75 L 269.75 123.00 L 268.75 122.75 L 268.75 119.00 L 267.75 118.75 L 267.75 109.00 L 268.75 108.75 L 268.75 106.00 L 269.75 105.75 L 269.75 103.00 L 270.75 102.75 L 270.75 101.00 L 271.75 100.75 L 271.75 100.00 L 272.75 99.75 L 272.75 99.00 L 273.75 98.75 L 274.00 97.75 L 275.75 97.75 L 275.75 97.00 L 276.75 96.75 L 277.00 95.75 L 279.75 95.75 L 280.00 94.75 L 286.75 94.75 L 287.00 95.75 L 288.75 95.75 L 289.00 96.75 L 290.75 96.75 L 291.00 97.75 L 291.75 97.75 L 292.00 98.75 L 292.75 98.75 L 293.00 99.75 L 294.00 100.00 L 294.00 101.75 L 295.00 102.00 L 295.00 103.75 L 302.75 103.75 L 302.75 103.00 L 303.75 102.75 L 303.75 101.00 L 302.75 100.75 L 302.75 99.00 L 301.75 98.75 L 301.75 97.00 L 301.00 97.00 L 300.75 96.00 L 300.00 96.00 L 299.75 95.00 L 299.00 95.00 L 298.75 94.00 L 298.00 94.00 L 297.75 93.00 L 296.75 92.75 L 296.75 92.00 L 295.00 92.00 L 294.75 91.00 L 293.00 91.00 L 292.75 90.00 L 289.00 90.00 L 288.75 89.00 L 276.00 89.00 L 275.75 90.00 L 274.00 90.00 L 273.75 91.00 Z" fill="#0E3B2E" fill-rule="evenodd"/>
  <path d="M 248.75 71.00 L 242.00 71.00 L 242.00 71.75 L 241.00 72.00 L 241.00 72.75 L 240.00 73.00 L 239.75 74.00 L 239.00 74.00 L 239.00 75.75 L 238.00 76.00 L 238.00 77.75 L 237.00 78.00 L 236.75 79.00 L 236.00 79.00 L 236.00 80.75 L 235.00 81.00 L 234.75 82.00 L 234.00 82.00 L 234.00 83.75 L 237.75 83.75 L 238.00 82.75 L 239.75 82.75 L 239.75 82.00 L 240.75 81.75 L 240.75 81.00 L 241.75 80.75 L 241.75 80.00 L 242.75 79.75 L 243.00 78.75 L 243.75 78.75 L 243.75 77.00 L 244.75 76.75 L 244.75 76.00 L 245.75 75.75 L 245.75 75.00 L 246.75 74.75 L 247.00 73.75 L 247.75 73.75 L 247.75 72.00 L 248.75 71.75 Z" fill="#0E3B2E" fill-rule="evenodd"/>
<path d="M 599.75 92.00 L 597.00 92.00 L 596.75 91.00 L 567.00 91.00 L 567.00 92.75 L 566.00 93.00 L 566.00 94.75 L 567.00 95.00 L 567.00 137.75 L 574.75 137.75 L 574.75 121.00 L 575.75 120.75 L 576.00 119.75 L 592.75 119.75 L 593.00 118.75 L 596.75 118.75 L 597.00 117.75 L 599.75 117.75 L 599.75 117.00 L 600.75 116.75 L 601.00 115.75 L 602.75 115.75 L 602.75 114.00 L 603.75 113.75 L 604.00 112.75 L 604.75 112.75 L 604.75 111.00 L 605.75 110.75 L 605.75 107.00 L 606.75 106.75 L 606.75 103.00 L 605.75 102.75 L 605.75 99.00 L 604.75 98.75 L 604.75 97.00 L 604.00 97.00 L 603.75 96.00 L 602.75 95.75 L 602.75 94.00 L 601.00 94.00 L 600.75 93.00 L 599.75 92.75 Z M 574.75 98.00 L 578.75 97.75 L 579.00 96.75 L 579.75 96.75 L 580.00 97.75 L 580.75 97.75 L 581.00 96.75 L 582.75 96.75 L 583.00 97.75 L 593.75 97.75 L 594.00 98.75 L 594.75 98.75 L 595.00 99.75 L 595.75 99.75 L 596.00 100.75 L 596.75 100.75 L 597.00 101.75 L 598.00 102.00 L 598.00 108.75 L 597.00 109.00 L 597.00 109.75 L 596.00 110.00 L 596.00 110.75 L 595.00 111.00 L 594.75 112.00 L 593.00 112.00 L 592.75 113.00 L 576.00 113.00 L 575.75 112.00 L 574.75 111.75 Z" fill="#B47A00" fill-rule="evenodd"/>
  <path d="M 517.00 91.00 L 517.00 96.75 L 517.75 96.75 L 518.00 97.75 L 526.75 97.75 L 527.00 96.75 L 529.75 96.75 L 530.00 97.75 L 534.75 97.75 L 535.00 96.75 L 538.75 96.75 L 539.00 97.75 L 544.00 98.00 L 544.00 100.75 L 543.00 101.00 L 543.00 101.75 L 542.00 102.00 L 542.00 102.75 L 541.00 103.00 L 541.00 103.75 L 540.00 104.00 L 540.00 104.75 L 539.00 105.00 L 539.00 105.75 L 538.00 106.00 L 538.00 106.75 L 537.00 107.00 L 537.00 107.75 L 536.00 108.00 L 536.00 108.75 L 535.00 109.00 L 535.00 109.75 L 534.00 110.00 L 534.00 110.75 L 533.00 111.00 L 533.00 111.75 L 532.00 112.00 L 532.00 112.75 L 531.00 113.00 L 531.00 113.75 L 530.00 114.00 L 530.00 114.75 L 529.00 115.00 L 528.75 116.00 L 528.00 116.00 L 528.00 117.75 L 528.75 117.75 L 529.00 118.75 L 530.75 118.75 L 531.00 119.75 L 537.75 119.75 L 538.00 120.75 L 540.75 120.75 L 541.00 121.75 L 542.75 121.75 L 543.00 122.75 L 544.75 122.75 L 545.00 123.75 L 545.75 123.75 L 546.00 124.75 L 547.00 125.00 L 547.00 126.75 L 548.00 127.00 L 548.00 134.75 L 547.00 135.00 L 547.00 136.75 L 546.00 137.00 L 546.00 137.75 L 545.00 138.00 L 544.75 139.00 L 543.00 139.00 L 543.00 139.75 L 542.00 140.00 L 541.75 141.00 L 538.00 141.00 L 537.75 142.00 L 531.00 142.00 L 530.75 141.00 L 526.00 141.00 L 525.75 140.00 L 524.00 140.00 L 523.75 139.00 L 522.75 138.75 L 522.75 138.00 L 521.00 138.00 L 520.75 136.00 L 520.00 136.00 L 519.75 135.00 L 518.00 135.00 L 517.75 134.00 L 514.00 134.00 L 513.75 135.00 L 511.00 135.00 L 511.00 137.75 L 511.75 137.75 L 512.00 138.75 L 513.00 139.00 L 513.00 140.75 L 513.75 140.75 L 514.00 141.75 L 514.75 141.75 L 515.00 142.75 L 515.75 142.75 L 516.00 143.75 L 517.00 144.00 L 517.00 144.75 L 518.75 144.75 L 519.00 145.75 L 520.00 146.00 L 520.00 146.75 L 521.75 146.75 L 522.00 147.75 L 525.75 147.75 L 526.00 148.75 L 530.75 148.75 L 531.00 149.75 L 537.75 149.75 L 538.00 148.75 L 542.75 148.75 L 543.00 147.75 L 545.75 147.75 L 546.00 146.75 L 547.75 146.75 L 547.75 146.00 L 548.75 145.75 L 549.00 144.75 L 550.75 144.75 L 550.75 144.00 L 551.75 143.75 L 552.00 142.75 L 552.75 142.75 L 552.75 141.00 L 553.75 140.75 L 554.00 139.75 L 554.75 139.75 L 554.75 138.00 L 555.75 137.75 L 555.75 135.00 L 556.75 134.75 L 556.75 125.00 L 555.75 124.75 L 555.75 122.00 L 555.00 122.00 L 554.75 121.00 L 554.00 121.00 L 553.75 120.00 L 553.00 120.00 L 552.75 119.00 L 551.75 118.75 L 551.75 118.00 L 550.00 118.00 L 549.75 117.00 L 548.00 117.00 L 547.75 116.00 L 546.00 116.00 L 545.75 115.00 L 544.00 115.00 L 543.75 114.00 L 542.75 113.75 L 542.75 112.00 L 543.75 111.75 L 543.75 110.00 L 544.75 109.75 L 544.75 109.00 L 545.75 108.75 L 545.75 108.00 L 546.75 107.75 L 546.75 107.00 L 547.75 106.75 L 547.75 106.00 L 548.75 105.75 L 548.75 105.00 L 549.75 104.75 L 549.75 104.00 L 550.75 103.75 L 550.75 103.00 L 551.75 102.75 L 551.75 102.00 L 552.75 101.75 L 552.75 101.00 L 553.75 100.75 L 553.75 100.00 L 554.75 99.75 L 555.00 98.75 L 555.75 98.75 L 555.75 93.00 L 554.75 92.75 L 554.75 91.00 Z" fill="#B47A00" fill-rule="evenodd"/>
  <path d="M 469.00 91.00 L 469.00 96.75 L 472.75 96.75 L 473.00 97.75 L 483.75 97.75 L 484.00 98.75 L 485.00 99.00 L 485.00 137.75 L 492.75 137.75 L 492.75 134.00 L 493.75 133.75 L 493.75 99.00 L 494.75 98.75 L 495.00 97.75 L 503.75 97.75 L 504.00 96.75 L 506.75 96.75 L 507.00 97.75 L 507.75 97.75 L 507.75 97.00 L 508.75 96.75 L 508.75 91.00 Z" fill="#B47A00" fill-rule="evenodd"/>
  <g transform="translate(411, 0) scale(1.06, 1) translate(-411, 0)">
<path d="M 618.00 183.00 L 618.00 198.75 L 627.75 198.75 L 627.75 197.00 L 619.75 196.75 L 620.00 191.75 L 627.75 191.75 L 627.75 190.00 L 620.00 190.00 L 619.75 185.00 L 627.75 184.75 L 627.75 183.00 Z" fill="#6E6E6E" fill-rule="evenodd"/>
  <path d="M 598.00 183.00 L 598.00 198.75 L 607.75 198.75 L 607.75 197.00 L 599.75 196.75 L 600.00 191.75 L 607.75 191.75 L 607.75 190.00 L 600.00 190.00 L 599.75 185.00 L 607.75 184.75 L 607.75 183.00 Z" fill="#6E6E6E" fill-rule="evenodd"/>
  <path d="M 577.00 183.00 L 577.00 198.75 L 578.75 198.75 L 579.00 191.75 L 583.75 191.75 L 584.00 192.75 L 585.00 193.00 L 585.00 194.75 L 586.00 195.00 L 586.00 196.75 L 587.00 197.00 L 587.00 198.75 L 588.75 198.75 L 588.75 197.00 L 587.75 196.75 L 587.75 195.00 L 586.75 194.75 L 586.75 193.00 L 586.00 193.00 L 585.75 192.00 L 584.75 191.75 L 584.75 191.00 L 585.75 190.75 L 586.00 189.75 L 586.75 189.75 L 586.75 185.00 L 586.00 185.00 L 585.75 184.00 L 584.75 183.75 L 584.75 183.00 Z M 578.75 185.00 L 583.75 184.75 L 584.00 185.75 L 585.00 186.00 L 585.00 188.75 L 584.00 189.00 L 583.75 190.00 L 579.00 190.00 Z" fill="#6E6E6E" fill-rule="evenodd"/>
  <path d="M 558.00 183.00 L 557.75 184.00 L 556.00 184.00 L 556.00 184.75 L 555.00 185.00 L 554.75 186.00 L 554.00 186.00 L 554.00 188.75 L 553.00 189.00 L 553.00 192.75 L 554.00 193.00 L 554.00 195.75 L 554.75 195.75 L 555.00 196.75 L 556.00 197.00 L 556.00 197.75 L 557.75 197.75 L 558.00 198.75 L 563.75 198.75 L 564.00 197.75 L 565.75 197.75 L 565.75 197.00 L 566.75 196.75 L 566.75 190.00 L 562.00 190.00 L 562.00 191.75 L 565.00 192.00 L 565.00 195.75 L 564.00 196.00 L 563.75 197.00 L 558.00 197.00 L 557.75 196.00 L 557.00 196.00 L 556.75 195.00 L 555.75 194.75 L 555.75 192.00 L 555.00 192.00 L 554.75 191.00 L 555.75 190.75 L 555.75 187.00 L 556.75 186.75 L 556.75 186.00 L 557.75 185.75 L 558.00 184.75 L 563.75 184.75 L 564.00 185.75 L 565.75 185.75 L 566.00 186.75 L 566.75 186.75 L 566.75 185.00 L 566.00 185.00 L 565.75 184.00 L 564.00 184.00 L 563.75 183.00 Z" fill="#6E6E6E" fill-rule="evenodd"/>
  <path d="M 537.00 183.00 L 537.00 184.75 L 536.00 185.00 L 536.00 187.75 L 535.00 188.00 L 535.00 189.75 L 534.00 190.00 L 534.00 192.75 L 533.00 193.00 L 533.00 195.75 L 532.00 196.00 L 532.00 197.75 L 531.00 198.00 L 531.00 198.75 L 533.75 198.75 L 533.75 196.00 L 534.75 195.75 L 535.00 194.75 L 541.75 194.75 L 542.00 195.75 L 543.00 196.00 L 543.00 198.75 L 545.75 198.75 L 545.75 198.00 L 544.75 197.75 L 544.75 196.00 L 543.75 195.75 L 543.75 193.00 L 542.75 192.75 L 542.75 190.00 L 541.75 189.75 L 541.75 188.00 L 540.75 187.75 L 540.75 185.00 L 539.75 184.75 L 539.75 183.00 Z M 538.00 185.75 L 539.00 186.00 L 539.00 187.75 L 540.00 188.00 L 540.00 189.75 L 541.00 190.00 L 540.75 193.00 L 535.75 192.75 L 535.75 190.00 L 536.75 189.75 L 536.75 188.00 L 537.75 187.75 Z" fill="#6E6E6E" fill-rule="evenodd"/>
  <path d="M 498.00 183.00 L 498.00 198.75 L 499.75 198.75 L 500.00 185.75 L 501.00 186.00 L 501.00 187.75 L 502.00 188.00 L 502.00 189.75 L 503.00 190.00 L 503.00 191.75 L 503.75 191.75 L 504.00 192.75 L 505.00 193.00 L 505.00 194.75 L 506.00 195.00 L 506.00 196.75 L 507.00 197.00 L 507.00 198.75 L 509.75 198.75 L 509.75 183.00 L 508.00 183.00 L 507.75 195.00 L 506.75 194.75 L 506.75 193.00 L 505.75 192.75 L 505.75 191.00 L 505.00 191.00 L 504.75 190.00 L 503.75 189.75 L 503.75 188.00 L 502.75 187.75 L 502.75 186.00 L 501.75 185.75 L 501.75 184.00 L 501.00 184.00 L 500.75 183.00 Z" fill="#6E6E6E" fill-rule="evenodd"/>
  <path d="M 479.00 183.00 L 478.75 184.00 L 477.00 184.00 L 477.00 184.75 L 476.00 185.00 L 475.75 186.00 L 475.00 186.00 L 475.00 188.75 L 474.00 189.00 L 474.00 192.75 L 475.00 193.00 L 475.00 195.75 L 475.75 195.75 L 476.00 196.75 L 477.00 197.00 L 477.00 197.75 L 478.75 197.75 L 479.00 198.75 L 483.75 198.75 L 484.00 197.75 L 485.75 197.75 L 485.75 197.00 L 486.75 196.75 L 487.00 195.75 L 487.75 195.75 L 487.75 194.00 L 488.75 193.75 L 488.75 188.00 L 487.75 187.75 L 487.75 186.00 L 487.00 186.00 L 486.75 185.00 L 485.75 184.75 L 485.75 184.00 L 484.00 184.00 L 483.75 183.00 Z M 479.00 184.75 L 483.75 184.75 L 484.00 185.75 L 484.75 185.75 L 485.00 186.75 L 486.00 187.00 L 486.00 188.75 L 487.00 189.00 L 487.00 192.75 L 486.00 193.00 L 486.00 194.75 L 485.00 195.00 L 485.00 195.75 L 484.00 196.00 L 483.75 197.00 L 479.00 197.00 L 478.75 196.00 L 478.00 196.00 L 477.75 195.00 L 476.75 194.75 L 476.75 192.00 L 476.00 192.00 L 475.75 191.00 L 476.75 190.75 L 476.75 187.00 L 477.75 186.75 L 477.75 186.00 L 478.75 185.75 Z" fill="#6E6E6E" fill-rule="evenodd"/>
  <path d="M 463.00 183.00 L 463.00 198.75 L 464.75 198.75 L 464.75 183.00 Z" fill="#6E6E6E" fill-rule="evenodd"/>
  <path d="M 440.00 183.00 L 440.00 184.75 L 446.00 185.00 L 446.00 198.75 L 447.75 198.75 L 447.75 185.00 L 452.75 184.75 L 452.75 183.00 Z" fill="#6E6E6E" fill-rule="evenodd"/>
  <path d="M 425.00 183.00 L 425.00 184.75 L 424.00 185.00 L 424.00 187.75 L 423.00 188.00 L 423.00 189.75 L 422.00 190.00 L 422.00 192.75 L 421.00 193.00 L 421.00 195.75 L 420.00 196.00 L 420.00 197.75 L 419.00 198.00 L 419.00 198.75 L 421.75 198.75 L 421.75 196.00 L 422.75 195.75 L 423.00 194.75 L 429.75 194.75 L 430.00 195.75 L 431.00 196.00 L 431.00 198.75 L 433.75 198.75 L 433.75 198.00 L 432.75 197.75 L 432.75 196.00 L 431.75 195.75 L 431.75 193.00 L 430.75 192.75 L 430.75 190.00 L 429.75 189.75 L 429.75 188.00 L 428.75 187.75 L 428.75 185.00 L 427.75 184.75 L 427.75 183.00 Z M 426.00 185.75 L 427.00 186.00 L 427.00 187.75 L 428.00 188.00 L 428.00 189.75 L 429.00 190.00 L 428.75 193.00 L 423.75 192.75 L 423.75 190.00 L 424.75 189.75 L 424.75 188.00 L 425.75 187.75 Z" fill="#6E6E6E" fill-rule="evenodd"/>
  <path d="M 396.00 183.00 L 396.00 198.75 L 397.75 198.75 L 398.00 185.75 L 399.00 186.00 L 399.00 187.75 L 400.00 188.00 L 400.00 190.75 L 401.00 191.00 L 401.00 192.75 L 402.00 193.00 L 402.00 195.75 L 404.75 195.75 L 404.75 193.00 L 405.75 192.75 L 405.75 191.00 L 406.75 190.75 L 406.75 188.00 L 407.75 187.75 L 408.00 185.75 L 409.00 186.00 L 409.00 198.75 L 410.75 198.75 L 410.75 183.00 L 407.00 183.00 L 407.00 185.75 L 406.00 186.00 L 406.00 188.75 L 405.00 189.00 L 405.00 190.75 L 404.00 191.00 L 403.75 193.00 L 402.75 192.75 L 402.75 191.00 L 401.75 190.75 L 401.75 189.00 L 400.75 188.75 L 400.75 186.00 L 399.75 185.75 L 399.75 183.00 Z" fill="#6E6E6E" fill-rule="evenodd"/>
  <path d="M 375.00 183.00 L 375.00 198.75 L 376.75 198.75 L 377.00 191.75 L 381.75 191.75 L 382.00 192.75 L 383.00 193.00 L 383.00 194.75 L 384.00 195.00 L 384.00 196.75 L 385.00 197.00 L 385.00 198.75 L 386.75 198.75 L 386.75 197.00 L 385.75 196.75 L 385.75 195.00 L 384.75 194.75 L 384.75 193.00 L 384.00 193.00 L 383.75 192.00 L 382.75 191.75 L 382.75 191.00 L 383.75 190.75 L 384.00 189.75 L 384.75 189.75 L 384.75 185.00 L 384.00 185.00 L 383.75 184.00 L 382.75 183.75 L 382.75 183.00 Z M 376.75 185.00 L 381.75 184.75 L 382.00 185.75 L 383.00 186.00 L 383.00 188.75 L 382.00 189.00 L 381.75 190.00 L 377.00 190.00 Z" fill="#6E6E6E" fill-rule="evenodd"/>
  <path d="M 356.00 183.00 L 355.75 184.00 L 354.00 184.00 L 354.00 184.75 L 353.00 185.00 L 352.75 186.00 L 352.00 186.00 L 352.00 188.75 L 351.00 189.00 L 351.00 192.75 L 352.00 193.00 L 352.00 195.75 L 352.75 195.75 L 353.00 196.75 L 354.00 197.00 L 354.00 197.75 L 355.75 197.75 L 356.00 198.75 L 360.75 198.75 L 361.00 197.75 L 362.75 197.75 L 362.75 197.00 L 363.75 196.75 L 364.00 195.75 L 364.75 195.75 L 364.75 194.00 L 365.75 193.75 L 365.75 188.00 L 364.75 187.75 L 364.75 186.00 L 364.00 186.00 L 363.75 185.00 L 362.75 184.75 L 362.75 184.00 L 361.00 184.00 L 360.75 183.00 Z M 356.00 184.75 L 360.75 184.75 L 361.00 185.75 L 361.75 185.75 L 362.00 186.75 L 363.00 187.00 L 363.00 188.75 L 364.00 189.00 L 364.00 192.75 L 363.00 193.00 L 363.00 194.75 L 362.00 195.00 L 362.00 195.75 L 361.00 196.00 L 360.75 197.00 L 356.00 197.00 L 355.75 196.00 L 355.00 196.00 L 354.75 195.00 L 353.75 194.75 L 353.75 192.00 L 353.00 192.00 L 352.75 191.00 L 353.75 190.75 L 353.75 187.00 L 354.75 186.75 L 354.75 186.00 L 355.75 185.75 Z" fill="#6E6E6E" fill-rule="evenodd"/>
  <path d="M 341.75 183.00 L 333.00 183.00 L 333.00 198.75 L 334.75 198.75 L 335.00 191.75 L 341.75 191.75 L 341.75 190.00 L 335.00 190.00 L 334.75 185.00 L 341.75 184.75 Z" fill="#6E6E6E" fill-rule="evenodd"/>
  <path d="M 300.00 183.00 L 300.00 198.75 L 309.75 198.75 L 309.75 197.00 L 301.75 196.75 L 302.00 191.75 L 309.75 191.75 L 309.75 190.00 L 302.00 190.00 L 301.75 185.00 L 309.75 184.75 L 309.75 183.00 Z" fill="#6E6E6E" fill-rule="evenodd"/>
  <path d="M 277.00 183.00 L 277.00 198.75 L 284.75 198.75 L 285.00 197.75 L 287.75 197.75 L 287.75 197.00 L 288.75 196.75 L 289.00 195.75 L 289.75 195.75 L 289.75 192.00 L 290.75 191.75 L 290.75 190.00 L 289.75 189.75 L 289.75 186.00 L 289.00 186.00 L 288.75 185.00 L 287.75 184.75 L 287.75 184.00 L 285.00 184.00 L 284.75 183.00 Z M 279.00 184.75 L 284.75 184.75 L 285.00 185.75 L 286.75 185.75 L 287.00 186.75 L 288.00 187.00 L 288.00 194.75 L 287.00 195.00 L 286.75 196.00 L 285.00 196.00 L 284.75 197.00 L 278.75 196.75 Z" fill="#6E6E6E" fill-rule="evenodd"/>
  <path d="M 244.00 183.00 L 244.00 198.75 L 253.75 198.75 L 253.75 197.00 L 245.75 196.75 L 246.00 191.75 L 253.75 191.75 L 253.75 190.00 L 246.00 190.00 L 245.75 185.00 L 253.75 184.75 L 253.75 183.00 Z" fill="#6E6E6E" fill-rule="evenodd"/>
  <path d="M 223.00 183.00 L 223.00 198.75 L 224.75 198.75 L 225.00 191.75 L 229.75 191.75 L 230.00 192.75 L 231.00 193.00 L 231.00 194.75 L 232.00 195.00 L 232.00 196.75 L 233.00 197.00 L 233.00 198.75 L 234.75 198.75 L 234.75 197.00 L 233.75 196.75 L 233.75 195.00 L 232.75 194.75 L 232.75 193.00 L 232.00 193.00 L 231.75 192.00 L 230.75 191.75 L 230.75 191.00 L 231.75 190.75 L 232.00 189.75 L 232.75 189.75 L 232.75 185.00 L 232.00 185.00 L 231.75 184.00 L 230.75 183.75 L 230.75 183.00 Z M 224.75 185.00 L 229.75 184.75 L 230.00 185.75 L 231.00 186.00 L 231.00 188.75 L 230.00 189.00 L 229.75 190.00 L 225.00 190.00 Z" fill="#6E6E6E" fill-rule="evenodd"/>
  <path d="M 200.00 183.00 L 200.00 184.75 L 206.00 185.00 L 206.00 198.75 L 207.75 198.75 L 207.75 185.00 L 212.75 184.75 L 212.75 183.00 Z" fill="#6E6E6E" fill-rule="evenodd"/>
  <path d="M 180.00 183.00 L 180.00 198.75 L 181.75 198.75 L 182.00 185.75 L 183.00 186.00 L 183.00 187.75 L 184.00 188.00 L 184.00 189.75 L 185.00 190.00 L 185.00 191.75 L 185.75 191.75 L 186.00 192.75 L 187.00 193.00 L 187.00 194.75 L 188.00 195.00 L 188.00 196.75 L 189.00 197.00 L 189.00 198.75 L 191.75 198.75 L 191.75 183.00 L 190.00 183.00 L 189.75 195.00 L 188.75 194.75 L 188.75 193.00 L 187.75 192.75 L 187.75 191.00 L 187.00 191.00 L 186.75 190.00 L 185.75 189.75 L 185.75 188.00 L 184.75 187.75 L 184.75 186.00 L 183.75 185.75 L 183.75 184.00 L 183.00 184.00 L 182.75 183.00 Z" fill="#6E6E6E" fill-rule="evenodd"/>
  <path d="M 160.00 183.00 L 160.00 198.75 L 169.75 198.75 L 169.75 197.00 L 161.75 196.75 L 162.00 191.75 L 169.75 191.75 L 169.75 190.00 L 162.00 190.00 L 161.75 185.00 L 169.75 184.75 L 169.75 183.00 Z" fill="#6E6E6E" fill-rule="evenodd"/>
  <path d="M 143.00 183.00 L 142.75 184.00 L 141.00 184.00 L 141.00 184.75 L 140.00 185.00 L 139.75 186.00 L 139.00 186.00 L 139.00 188.75 L 138.00 189.00 L 138.00 192.75 L 139.00 193.00 L 139.00 195.75 L 139.75 195.75 L 140.00 196.75 L 141.00 197.00 L 141.00 197.75 L 142.75 197.75 L 143.00 198.75 L 148.75 198.75 L 148.75 198.00 L 149.75 197.75 L 149.75 197.00 L 150.75 196.75 L 150.75 196.00 L 149.00 196.00 L 148.75 197.00 L 143.00 197.00 L 142.75 196.00 L 142.00 196.00 L 141.75 195.00 L 140.75 194.75 L 140.75 192.00 L 140.00 192.00 L 139.75 191.00 L 140.75 190.75 L 140.75 187.00 L 141.75 186.75 L 141.75 186.00 L 142.75 185.75 L 143.00 184.75 L 148.75 184.75 L 149.00 185.75 L 150.75 185.75 L 150.75 185.00 L 150.00 185.00 L 149.75 184.00 L 148.75 183.75 L 148.75 183.00 Z" fill="#6E6E6E" fill-rule="evenodd"/>
  <path d="M 604.75 178.00 L 604.00 178.00 L 604.00 178.75 L 603.00 179.00 L 603.00 179.75 L 602.00 180.00 L 602.00 180.75 L 603.75 180.75 L 603.75 179.00 L 604.75 178.75 Z" fill="#6E6E6E" fill-rule="evenodd"/>
  </g>
  <path d="M 531.00 141.00 L 531.00 141.75 L 537.75 141.75 L 537.75 141.00 Z" fill="#6E6E6E" fill-rule="evenodd"/>
  <path d="M 542.75 139.00 L 542.00 139.00 L 541.75 140.00 L 539.00 140.00 L 539.00 140.75 L 541.75 140.75 L 541.75 140.00 L 542.75 139.75 Z" fill="#6E6E6E" fill-rule="evenodd"/>
  <path d="M 547.75 132.00 L 547.00 132.00 L 547.00 134.75 L 546.00 135.00 L 546.00 136.75 L 545.00 137.00 L 545.00 137.75 L 544.00 138.00 L 544.00 138.75 L 544.75 138.75 L 544.75 138.00 L 545.75 137.75 L 546.00 136.75 L 546.75 136.75 L 546.75 135.00 L 547.75 134.75 Z" fill="#6E6E6E" fill-rule="evenodd"/>
  <path d="M 511.00 134.00 L 511.00 134.75 L 510.00 135.00 L 510.00 137.75 L 511.00 138.00 L 511.00 139.75 L 511.75 139.75 L 512.00 140.75 L 513.00 141.00 L 513.00 142.75 L 514.75 142.75 L 515.00 143.75 L 515.75 143.75 L 516.00 144.75 L 517.00 145.00 L 517.00 145.75 L 518.75 145.75 L 519.00 146.75 L 520.00 147.00 L 520.00 147.75 L 521.75 147.75 L 521.75 147.00 L 520.00 147.00 L 519.75 146.00 L 518.75 145.75 L 518.75 145.00 L 517.00 145.00 L 516.75 144.00 L 516.00 144.00 L 515.75 143.00 L 515.00 143.00 L 514.75 142.00 L 514.00 142.00 L 513.75 141.00 L 512.75 140.75 L 512.75 139.00 L 512.00 139.00 L 511.75 138.00 L 510.75 137.75 L 511.00 134.75 L 513.75 134.75 L 514.00 133.75 L 517.75 133.75 L 518.00 134.75 L 519.75 134.75 L 520.00 135.75 L 521.00 136.00 L 521.00 137.75 L 522.75 137.75 L 523.00 138.75 L 524.00 139.00 L 524.00 139.75 L 525.75 139.75 L 526.00 140.75 L 529.75 140.75 L 529.75 140.00 L 526.00 140.00 L 525.75 139.00 L 524.00 139.00 L 523.75 138.00 L 523.00 138.00 L 522.75 137.00 L 522.00 137.00 L 521.75 136.00 L 521.00 136.00 L 520.75 135.00 L 520.00 135.00 L 519.75 134.00 L 518.75 133.75 L 518.75 132.00 L 517.00 132.00 L 516.75 133.00 L 514.00 133.00 L 513.75 134.00 Z" fill="#6E6E6E" fill-rule="evenodd"/>
  <path d="M 408.00 131.00 L 408.00 137.75 L 408.75 137.75 L 409.00 138.75 L 443.75 138.75 L 443.75 130.00 L 409.00 130.00 L 409.00 130.75 Z M 408.75 132.00 L 409.75 131.75 L 410.00 130.75 L 442.75 130.75 L 443.00 137.75 L 410.00 138.00 L 409.75 137.00 L 408.75 136.75 Z" fill="#6E6E6E" fill-rule="evenodd"/>
  <path d="M 216.00 131.00 L 216.00 137.75 L 216.75 137.75 L 217.00 138.75 L 252.75 138.75 L 252.75 138.00 L 253.75 137.75 L 253.75 131.00 L 253.00 131.00 L 252.75 130.00 L 217.00 130.00 L 217.00 130.75 Z M 216.75 131.00 L 252.75 130.75 L 253.00 137.75 L 217.00 138.00 Z" fill="#6E6E6E" fill-rule="evenodd"/>
  <path d="M 542.00 122.00 L 542.00 122.75 L 542.75 122.75 L 543.00 123.75 L 545.00 124.00 L 545.00 125.75 L 545.75 125.75 L 546.00 126.75 L 547.00 127.00 L 547.00 129.75 L 547.75 129.75 L 547.75 127.00 L 546.75 126.75 L 546.75 125.00 L 546.00 125.00 L 545.75 124.00 L 544.75 123.75 L 544.75 123.00 L 543.00 123.00 L 542.75 122.00 Z" fill="#6E6E6E" fill-rule="evenodd"/>
  <path d="M 301.75 122.00 L 296.00 122.00 L 296.00 122.75 L 295.00 123.00 L 295.00 125.75 L 294.00 126.00 L 294.00 126.75 L 293.00 127.00 L 293.00 127.75 L 292.00 128.00 L 291.75 129.00 L 290.00 129.00 L 290.00 129.75 L 289.00 130.00 L 289.00 130.75 L 290.75 130.75 L 290.75 130.00 L 291.75 129.75 L 291.75 129.00 L 292.75 128.75 L 292.75 128.00 L 293.75 127.75 L 293.75 127.00 L 294.75 126.75 L 295.00 125.75 L 295.75 125.75 L 295.75 124.00 L 296.75 123.75 L 297.00 122.75 L 301.75 122.75 Z" fill="#6E6E6E" fill-rule="evenodd"/>
  <path d="M 260.00 122.00 L 260.00 124.75 L 261.00 125.00 L 261.00 127.75 L 261.75 127.75 L 262.00 128.75 L 263.00 129.00 L 263.00 130.75 L 263.75 130.75 L 264.00 131.75 L 264.75 131.75 L 265.00 132.75 L 265.75 132.75 L 266.00 133.75 L 266.75 133.75 L 267.00 134.75 L 268.00 135.00 L 268.00 135.75 L 269.75 135.75 L 270.00 136.75 L 271.75 136.75 L 272.00 137.75 L 273.75 137.75 L 274.00 138.75 L 277.75 138.75 L 278.00 139.75 L 289.75 139.75 L 290.00 138.75 L 293.75 138.75 L 294.00 137.75 L 295.75 137.75 L 295.75 137.00 L 296.75 136.75 L 296.75 136.00 L 297.75 135.75 L 298.00 134.75 L 299.75 134.75 L 299.75 134.00 L 300.75 133.75 L 300.75 132.00 L 301.75 131.75 L 302.00 130.75 L 302.75 130.75 L 302.75 129.00 L 303.75 128.75 L 304.00 127.75 L 304.75 127.75 L 304.75 125.00 L 305.75 124.75 L 305.75 123.00 L 304.00 123.00 L 303.75 122.00 L 303.00 122.00 L 303.00 122.75 L 303.75 122.75 L 304.00 123.75 L 305.00 124.00 L 305.00 124.75 L 304.00 125.00 L 304.00 127.75 L 303.00 128.00 L 302.75 129.00 L 302.00 129.00 L 302.00 130.75 L 301.00 131.00 L 301.00 131.75 L 300.00 132.00 L 300.00 132.75 L 299.00 133.00 L 299.00 133.75 L 298.00 134.00 L 298.00 134.75 L 297.00 135.00 L 296.75 136.00 L 295.00 136.00 L 294.75 137.00 L 293.00 137.00 L 292.75 138.00 L 289.00 138.00 L 288.75 139.00 L 279.00 139.00 L 278.75 138.00 L 275.00 138.00 L 274.75 137.00 L 272.00 137.00 L 271.75 136.00 L 270.00 136.00 L 269.75 135.00 L 268.00 135.00 L 267.75 134.00 L 267.00 134.00 L 266.75 133.00 L 266.00 133.00 L 265.75 132.00 L 265.00 132.00 L 264.75 131.00 L 263.75 130.75 L 263.75 129.00 L 262.75 128.75 L 262.75 127.00 L 261.75 126.75 L 261.75 125.00 L 260.75 124.75 L 260.75 122.00 Z" fill="#6E6E6E" fill-rule="evenodd"/>
  <path d="M 532.00 120.00 L 532.00 120.75 L 537.75 120.75 L 538.00 121.75 L 540.75 121.75 L 540.75 121.00 L 538.00 121.00 L 537.75 120.00 Z" fill="#6E6E6E" fill-rule="evenodd"/>
  <path d="M 358.75 118.00 L 358.00 118.00 L 358.00 122.75 L 357.00 123.00 L 357.00 124.75 L 356.00 125.00 L 356.00 127.75 L 355.00 128.00 L 354.75 129.00 L 354.00 129.00 L 354.00 130.75 L 353.00 131.00 L 353.00 131.75 L 352.00 132.00 L 352.00 132.75 L 351.00 133.00 L 350.75 134.00 L 349.00 134.00 L 349.00 134.75 L 348.00 135.00 L 347.75 136.00 L 346.00 136.00 L 345.75 137.00 L 343.00 137.00 L 342.75 138.00 L 338.00 138.00 L 337.75 139.00 L 333.00 139.00 L 332.75 138.00 L 327.00 138.00 L 326.75 137.00 L 324.00 137.00 L 323.75 136.00 L 322.00 136.00 L 321.75 135.00 L 321.00 135.00 L 320.75 134.00 L 320.00 134.00 L 319.75 133.00 L 319.00 133.00 L 318.75 132.00 L 318.00 132.00 L 317.75 131.00 L 317.00 131.00 L 316.75 130.00 L 316.00 130.00 L 315.75 129.00 L 314.75 128.75 L 314.75 127.00 L 313.75 126.75 L 313.75 124.00 L 312.75 123.75 L 312.75 121.00 L 312.00 121.00 L 312.00 123.75 L 313.00 124.00 L 313.00 126.75 L 314.00 127.00 L 314.00 128.75 L 315.00 129.00 L 315.00 130.75 L 315.75 130.75 L 316.00 131.75 L 316.75 131.75 L 317.00 132.75 L 317.75 132.75 L 318.00 133.75 L 318.75 133.75 L 319.00 134.75 L 320.00 135.00 L 320.00 135.75 L 321.75 135.75 L 322.00 136.75 L 323.75 136.75 L 324.00 137.75 L 326.75 137.75 L 327.00 138.75 L 330.75 138.75 L 331.00 139.75 L 338.75 139.75 L 339.00 138.75 L 343.75 138.75 L 344.00 137.75 L 345.75 137.75 L 346.00 136.75 L 347.75 136.75 L 348.00 135.75 L 349.75 135.75 L 349.75 135.00 L 350.75 134.75 L 350.75 134.00 L 351.75 133.75 L 351.75 133.00 L 352.75 132.75 L 352.75 132.00 L 353.75 131.75 L 353.75 131.00 L 354.75 130.75 L 355.00 129.75 L 355.75 129.75 L 355.75 128.00 L 356.75 127.75 L 356.75 126.00 L 357.75 125.75 L 357.75 123.00 L 358.75 122.75 Z" fill="#6E6E6E" fill-rule="evenodd"/>
  <path d="M 227.00 117.00 L 227.00 117.75 L 237.75 117.75 L 237.75 117.00 Z" fill="#6E6E6E" fill-rule="evenodd"/>
  <path d="M 358.00 115.00 L 358.00 116.75 L 358.75 116.75 L 358.75 115.00 Z" fill="#6E6E6E" fill-rule="evenodd"/>
  <path d="M 556.75 122.00 L 556.00 122.00 L 555.75 121.00 L 555.00 121.00 L 554.75 120.00 L 554.00 120.00 L 553.75 119.00 L 553.00 119.00 L 552.75 118.00 L 551.75 117.75 L 551.75 117.00 L 550.00 117.00 L 549.75 116.00 L 548.00 116.00 L 547.75 115.00 L 546.00 115.00 L 545.75 114.00 L 544.00 114.00 L 543.75 112.00 L 543.00 112.00 L 543.00 113.75 L 543.75 113.75 L 544.00 114.75 L 545.75 114.75 L 546.00 115.75 L 547.75 115.75 L 548.00 116.75 L 549.75 116.75 L 550.00 117.75 L 551.75 117.75 L 552.00 118.75 L 552.75 118.75 L 553.00 119.75 L 553.75 119.75 L 554.00 120.75 L 554.75 120.75 L 555.00 121.75 L 556.00 122.00 L 556.00 124.75 L 557.00 125.00 L 557.00 134.75 L 556.00 135.00 L 556.00 137.75 L 555.00 138.00 L 555.00 139.75 L 554.00 140.00 L 553.75 141.00 L 553.00 141.00 L 553.00 142.75 L 552.00 143.00 L 552.00 143.75 L 551.00 144.00 L 550.75 145.00 L 549.00 145.00 L 549.00 145.75 L 548.00 146.00 L 547.75 147.00 L 546.00 147.00 L 545.75 148.00 L 543.00 148.00 L 542.75 149.00 L 538.00 149.00 L 537.75 150.00 L 531.00 150.00 L 530.75 149.00 L 526.00 149.00 L 525.75 148.00 L 523.00 148.00 L 523.00 148.75 L 525.75 148.75 L 526.00 149.75 L 530.75 149.75 L 531.00 150.75 L 537.75 150.75 L 538.00 149.75 L 542.75 149.75 L 543.00 148.75 L 545.75 148.75 L 546.00 147.75 L 547.75 147.75 L 548.00 146.75 L 549.75 146.75 L 549.75 146.00 L 550.75 145.75 L 550.75 145.00 L 551.75 144.75 L 551.75 144.00 L 552.75 143.75 L 552.75 143.00 L 553.75 142.75 L 554.00 141.75 L 554.75 141.75 L 554.75 140.00 L 555.75 139.75 L 555.75 138.00 L 556.75 137.75 L 556.75 136.00 L 557.75 135.75 L 557.75 125.00 L 556.75 124.75 Z" fill="#6E6E6E" fill-rule="evenodd"/>
  <path d="M 320.00 112.00 L 320.00 117.75 L 321.00 118.00 L 321.00 122.75 L 322.00 123.00 L 322.00 124.75 L 323.00 125.00 L 323.00 126.75 L 323.75 126.75 L 324.00 127.75 L 324.75 127.75 L 325.00 128.75 L 326.00 129.00 L 326.00 129.75 L 327.75 129.75 L 328.00 130.75 L 329.75 130.75 L 329.75 130.00 L 328.00 130.00 L 327.75 129.00 L 327.00 129.00 L 326.75 128.00 L 326.00 128.00 L 325.75 127.00 L 325.00 127.00 L 324.75 126.00 L 324.00 126.00 L 323.75 125.00 L 322.75 124.75 L 322.75 122.00 L 321.75 121.75 L 321.75 118.00 L 320.75 117.75 L 320.75 112.00 Z" fill="#6E6E6E" fill-rule="evenodd"/>
  <path d="M 605.75 111.00 L 605.00 111.00 L 605.00 112.75 L 604.00 113.00 L 603.75 114.00 L 603.00 114.00 L 603.00 115.75 L 601.00 116.00 L 601.00 116.75 L 600.00 117.00 L 599.75 118.00 L 597.00 118.00 L 596.75 119.00 L 593.00 119.00 L 592.75 120.00 L 578.00 120.00 L 578.00 120.75 L 592.75 120.75 L 593.00 119.75 L 596.75 119.75 L 597.00 118.75 L 599.75 118.75 L 600.00 117.75 L 601.75 117.75 L 601.75 117.00 L 602.75 116.75 L 602.75 116.00 L 603.75 115.75 L 604.00 114.75 L 604.75 114.75 L 604.75 113.00 L 605.75 112.75 Z" fill="#6E6E6E" fill-rule="evenodd"/>
  <path d="M 408.00 110.00 L 408.00 117.75 L 408.75 117.75 L 409.00 118.75 L 438.75 118.75 L 438.75 110.00 Z M 408.75 111.00 L 437.75 110.75 L 438.00 117.75 L 409.00 118.00 Z" fill="#6E6E6E" fill-rule="evenodd"/>
  <path d="M 216.00 110.00 L 216.00 117.75 L 217.75 117.75 L 218.00 118.75 L 225.75 118.75 L 225.75 118.00 L 218.00 118.00 L 217.75 117.00 L 216.75 116.75 L 216.75 111.00 L 217.75 110.75 L 218.00 109.75 L 244.75 109.75 L 245.00 110.75 L 246.00 111.00 L 246.00 116.75 L 245.00 117.00 L 244.75 118.00 L 244.00 118.00 L 243.75 117.00 L 239.00 117.00 L 239.00 117.75 L 240.75 117.75 L 241.00 118.75 L 242.75 118.75 L 243.00 117.75 L 243.75 117.75 L 244.00 118.75 L 244.75 118.75 L 245.00 117.75 L 246.75 117.75 L 246.75 110.00 L 245.00 110.00 L 244.75 109.00 L 217.00 109.00 L 217.00 109.75 Z" fill="#6E6E6E" fill-rule="evenodd"/>
  <path d="M 259.00 108.00 L 259.00 120.75 L 259.75 120.75 L 259.75 108.00 Z" fill="#6E6E6E" fill-rule="evenodd"/>
  <path d="M 606.00 107.00 L 606.00 109.75 L 606.75 109.75 L 606.75 107.00 Z" fill="#6E6E6E" fill-rule="evenodd"/>
  <path d="M 593.75 98.00 L 591.00 98.00 L 591.00 98.75 L 593.75 98.75 L 594.00 99.75 L 594.75 99.75 L 595.00 100.75 L 595.75 100.75 L 596.00 101.75 L 597.00 102.00 L 597.00 108.75 L 596.00 109.00 L 596.00 109.75 L 595.00 110.00 L 594.75 111.00 L 593.00 111.00 L 592.75 112.00 L 585.00 112.00 L 585.00 112.75 L 592.75 112.75 L 593.00 111.75 L 594.75 111.75 L 594.75 111.00 L 595.75 110.75 L 595.75 110.00 L 596.75 109.75 L 597.00 108.75 L 597.75 108.75 L 597.75 102.00 L 597.00 102.00 L 596.75 101.00 L 596.00 101.00 L 595.75 100.00 L 595.00 100.00 L 594.75 99.00 L 593.75 98.75 Z" fill="#6E6E6E" fill-rule="evenodd"/>
  <path d="M 575.00 98.00 L 575.00 111.75 L 575.75 111.75 L 576.00 112.75 L 580.75 112.75 L 580.75 112.00 L 575.75 111.75 L 575.75 99.00 L 576.75 98.75 L 576.75 98.00 Z" fill="#6E6E6E" fill-rule="evenodd"/>
  <path d="M 543.75 98.00 L 542.00 98.00 L 542.00 98.75 L 543.00 99.00 L 543.00 100.75 L 542.00 101.00 L 542.00 101.75 L 541.00 102.00 L 541.00 102.75 L 540.00 103.00 L 540.00 103.75 L 539.00 104.00 L 539.00 104.75 L 538.00 105.00 L 538.00 105.75 L 537.00 106.00 L 537.00 106.75 L 536.00 107.00 L 536.00 107.75 L 535.00 108.00 L 535.00 108.75 L 534.00 109.00 L 534.00 109.75 L 533.00 110.00 L 533.00 110.75 L 532.00 111.00 L 532.00 111.75 L 531.00 112.00 L 531.00 112.75 L 530.00 113.00 L 529.75 114.00 L 528.00 114.00 L 528.00 114.75 L 527.00 115.00 L 527.00 118.75 L 527.75 118.75 L 528.00 119.75 L 530.75 119.75 L 530.75 119.00 L 529.00 119.00 L 528.75 118.00 L 527.75 117.75 L 527.75 116.00 L 528.75 115.75 L 528.75 115.00 L 529.75 114.75 L 529.75 114.00 L 530.75 113.75 L 530.75 113.00 L 531.75 112.75 L 531.75 112.00 L 532.75 111.75 L 532.75 111.00 L 533.75 110.75 L 533.75 110.00 L 534.75 109.75 L 534.75 109.00 L 535.75 108.75 L 535.75 108.00 L 536.75 107.75 L 536.75 107.00 L 537.75 106.75 L 537.75 106.00 L 538.75 105.75 L 538.75 105.00 L 539.75 104.75 L 539.75 104.00 L 540.75 103.75 L 540.75 103.00 L 541.75 102.75 L 541.75 102.00 L 542.75 101.75 L 543.00 100.75 L 543.75 100.75 Z" fill="#6E6E6E" fill-rule="evenodd"/>
  <path d="M 482.00 98.00 L 482.00 98.75 L 484.00 99.00 L 484.00 137.75 L 484.75 137.75 L 485.00 138.75 L 493.75 138.75 L 493.75 138.00 L 494.75 137.75 L 494.75 137.00 L 493.75 136.75 L 493.75 135.00 L 494.75 134.75 L 494.75 99.00 L 496.75 98.75 L 496.75 98.00 L 495.00 98.00 L 495.00 98.75 L 494.00 99.00 L 494.00 133.75 L 493.00 134.00 L 492.75 138.00 L 484.75 137.75 L 484.75 99.00 L 484.00 99.00 L 483.75 98.00 Z" fill="#6E6E6E" fill-rule="evenodd"/>
  <path d="M 581.00 97.00 L 581.00 97.75 L 582.75 97.75 L 582.75 97.00 Z" fill="#6E6E6E" fill-rule="evenodd"/>
  <path d="M 579.00 97.00 L 579.00 97.75 L 579.75 97.75 L 579.75 97.00 Z" fill="#6E6E6E" fill-rule="evenodd"/>
  <path d="M 535.00 97.00 L 535.00 97.75 L 538.75 97.75 L 538.75 97.00 Z" fill="#6E6E6E" fill-rule="evenodd"/>
  <path d="M 527.00 97.00 L 527.00 97.75 L 529.75 97.75 L 529.75 97.00 Z" fill="#6E6E6E" fill-rule="evenodd"/>
  <path d="M 504.00 97.00 L 504.00 97.75 L 506.75 97.75 L 506.75 97.00 Z" fill="#6E6E6E" fill-rule="evenodd"/>
  <path d="M 566.00 95.00 L 566.00 138.75 L 575.75 138.75 L 575.75 121.00 L 576.75 120.75 L 576.75 120.00 L 576.00 120.00 L 576.00 120.75 L 575.00 121.00 L 575.00 137.75 L 566.75 137.75 L 566.75 95.00 Z" fill="#6E6E6E" fill-rule="evenodd"/>
  <path d="M 556.75 95.00 L 556.00 95.00 L 556.00 98.75 L 555.00 99.00 L 555.00 99.75 L 554.00 100.00 L 554.00 100.75 L 553.00 101.00 L 553.00 101.75 L 552.00 102.00 L 552.00 102.75 L 551.00 103.00 L 551.00 103.75 L 550.00 104.00 L 550.00 104.75 L 549.00 105.00 L 549.00 105.75 L 548.00 106.00 L 548.00 106.75 L 547.00 107.00 L 547.00 107.75 L 546.00 108.00 L 546.00 108.75 L 545.00 109.00 L 545.00 109.75 L 544.00 110.00 L 544.00 110.75 L 544.75 110.75 L 544.75 110.00 L 545.75 109.75 L 545.75 109.00 L 546.75 108.75 L 546.75 108.00 L 547.75 107.75 L 547.75 107.00 L 548.75 106.75 L 548.75 106.00 L 549.75 105.75 L 549.75 105.00 L 550.75 104.75 L 550.75 104.00 L 551.75 103.75 L 551.75 103.00 L 552.75 102.75 L 552.75 102.00 L 553.75 101.75 L 553.75 101.00 L 554.75 100.75 L 554.75 100.00 L 555.75 99.75 L 556.00 98.75 L 556.75 98.75 Z" fill="#6E6E6E" fill-rule="evenodd"/>
  <path d="M 332.00 95.00 L 331.75 96.00 L 329.00 96.00 L 328.75 97.00 L 327.00 97.00 L 327.00 97.75 L 326.00 98.00 L 326.00 98.75 L 325.00 99.00 L 325.00 99.75 L 324.00 100.00 L 323.75 101.00 L 323.00 101.00 L 323.00 102.75 L 322.00 103.00 L 322.00 105.75 L 321.00 106.00 L 321.00 110.75 L 321.75 110.75 L 321.75 107.00 L 322.75 106.75 L 322.75 104.00 L 323.75 103.75 L 323.75 102.00 L 324.75 101.75 L 324.75 100.00 L 325.75 99.75 L 326.00 98.75 L 327.75 98.75 L 327.75 98.00 L 328.75 97.75 L 329.00 96.75 L 331.75 96.75 L 332.00 95.75 L 336.75 95.75 L 337.00 96.75 L 340.75 96.75 L 341.00 97.75 L 342.75 97.75 L 343.00 98.75 L 343.75 98.75 L 344.00 99.75 L 344.75 99.75 L 345.00 100.75 L 345.75 100.75 L 346.00 101.75 L 347.00 102.00 L 347.00 103.75 L 348.00 104.00 L 348.00 106.75 L 349.00 107.00 L 349.00 120.75 L 348.00 121.00 L 348.00 123.75 L 347.00 124.00 L 347.00 125.75 L 346.00 126.00 L 346.00 126.75 L 345.00 127.00 L 345.00 127.75 L 344.00 128.00 L 343.75 129.00 L 342.00 129.00 L 341.75 130.00 L 340.00 130.00 L 339.75 131.00 L 331.00 131.00 L 331.00 131.75 L 339.75 131.75 L 340.00 130.75 L 342.75 130.75 L 342.75 130.00 L 343.75 129.75 L 343.75 129.00 L 344.75 128.75 L 344.75 128.00 L 345.75 127.75 L 345.75 127.00 L 346.75 126.75 L 347.00 125.75 L 347.75 125.75 L 347.75 124.00 L 348.75 123.75 L 348.75 121.00 L 349.75 120.75 L 349.75 107.00 L 348.75 106.75 L 348.75 104.00 L 347.75 103.75 L 347.75 102.00 L 347.00 102.00 L 346.75 101.00 L 345.75 100.75 L 345.75 99.00 L 344.00 99.00 L 343.75 98.00 L 342.75 97.75 L 342.75 97.00 L 341.00 97.00 L 340.75 96.00 L 338.00 96.00 L 337.75 95.00 Z" fill="#6E6E6E" fill-rule="evenodd"/>
  <path d="M 600.00 92.00 L 600.00 92.75 L 600.75 92.75 L 601.00 93.75 L 602.75 93.75 L 603.00 95.75 L 603.75 95.75 L 604.00 96.75 L 605.00 97.00 L 605.00 98.75 L 606.00 99.00 L 606.00 102.75 L 606.75 102.75 L 606.75 99.00 L 605.75 98.75 L 605.75 96.00 L 605.00 96.00 L 604.75 95.00 L 604.00 95.00 L 603.75 94.00 L 602.75 93.75 L 602.75 93.00 L 601.00 93.00 L 600.75 92.00 Z" fill="#6E6E6E" fill-rule="evenodd"/>
  <path d="M 566.00 90.00 L 566.00 92.75 L 566.75 92.75 L 567.00 90.75 L 596.75 90.75 L 597.00 91.75 L 598.75 91.75 L 598.75 91.00 L 597.00 91.00 L 596.75 90.00 Z" fill="#6E6E6E" fill-rule="evenodd"/>
  <path d="M 516.00 97.75 L 517.75 97.75 L 517.75 97.00 L 516.75 96.75 L 517.00 90.75 L 554.75 90.75 L 555.00 92.75 L 555.75 92.75 L 555.75 90.00 L 516.00 90.00 Z" fill="#6E6E6E" fill-rule="evenodd"/>
  <path d="M 468.00 91.00 L 468.00 96.75 L 468.75 96.75 L 469.00 97.75 L 472.75 97.75 L 472.75 97.00 L 468.75 96.75 L 469.00 90.75 L 508.75 90.75 L 509.00 96.75 L 508.00 97.00 L 508.00 97.75 L 509.75 97.75 L 509.75 90.00 L 469.00 90.00 L 469.00 90.75 Z" fill="#6E6E6E" fill-rule="evenodd"/>
  <path d="M 408.00 90.00 L 408.00 96.75 L 409.00 97.00 L 409.00 98.75 L 442.75 98.75 L 442.75 98.00 L 443.75 97.75 L 443.75 90.00 L 443.00 90.00 L 442.75 89.00 L 409.00 89.00 L 409.00 89.75 Z M 408.75 91.00 L 409.75 90.75 L 410.00 89.75 L 441.75 89.75 L 442.00 90.75 L 443.00 91.00 L 443.00 96.75 L 442.00 97.00 L 441.75 98.00 L 411.00 98.00 L 410.75 97.00 L 408.75 96.75 Z" fill="#6E6E6E" fill-rule="evenodd"/>
  <path d="M 369.00 89.00 L 369.00 138.75 L 402.75 138.75 L 402.75 138.00 L 403.75 137.75 L 403.75 131.00 L 403.00 131.00 L 402.75 130.00 L 380.00 130.00 L 379.75 129.00 L 378.75 128.75 L 378.75 90.00 L 378.00 90.00 L 377.75 89.00 Z M 370.00 89.75 L 378.00 90.00 L 378.00 129.75 L 378.75 129.75 L 379.00 130.75 L 401.75 130.75 L 401.75 138.00 L 369.75 137.75 Z" fill="#6E6E6E" fill-rule="evenodd"/>
  <path d="M 275.75 89.00 L 273.00 89.00 L 272.75 90.00 L 271.00 90.00 L 271.00 90.75 L 270.00 91.00 L 269.75 92.00 L 268.00 92.00 L 268.00 92.75 L 267.00 93.00 L 267.00 93.75 L 266.00 94.00 L 266.00 94.75 L 265.00 95.00 L 265.00 95.75 L 264.00 96.00 L 263.75 97.00 L 263.00 97.00 L 263.00 98.75 L 262.00 99.00 L 262.00 100.75 L 261.00 101.00 L 261.00 102.75 L 260.00 103.00 L 260.00 106.75 L 260.75 106.75 L 260.75 104.00 L 261.75 103.75 L 261.75 101.00 L 262.75 100.75 L 262.75 99.00 L 263.75 98.75 L 264.00 97.75 L 264.75 97.75 L 264.75 96.00 L 265.75 95.75 L 265.75 95.00 L 266.75 94.75 L 267.00 93.75 L 268.75 93.75 L 268.75 93.00 L 269.75 92.75 L 269.75 92.00 L 270.75 91.75 L 271.00 90.75 L 273.75 90.75 L 274.00 89.75 L 275.75 89.75 Z" fill="#6E6E6E" fill-rule="evenodd"/>
  <path d="M 216.00 89.00 L 216.00 97.75 L 252.75 97.75 L 252.75 90.00 L 252.00 90.00 L 251.75 89.00 Z M 216.75 90.00 L 251.75 89.75 L 252.00 96.75 L 217.00 97.00 Z" fill="#6E6E6E" fill-rule="evenodd"/>
  <path d="M 311.00 119.75 L 311.75 119.75 L 311.75 109.00 L 312.75 108.75 L 312.75 105.00 L 313.75 104.75 L 313.75 102.00 L 314.75 101.75 L 314.75 100.00 L 315.75 99.75 L 315.75 98.00 L 316.75 97.75 L 316.75 97.00 L 317.75 96.75 L 317.75 96.00 L 318.75 95.75 L 318.75 95.00 L 319.75 94.75 L 319.75 94.00 L 320.75 93.75 L 320.75 93.00 L 321.75 92.75 L 322.00 91.75 L 323.75 91.75 L 324.00 90.75 L 325.75 90.75 L 326.00 89.75 L 328.75 89.75 L 329.00 88.75 L 341.75 88.75 L 342.00 89.75 L 344.75 89.75 L 345.00 90.75 L 346.75 90.75 L 347.00 91.75 L 348.75 91.75 L 349.00 92.75 L 349.75 92.75 L 350.00 93.75 L 350.75 93.75 L 351.00 94.75 L 351.75 94.75 L 352.00 95.75 L 352.75 95.75 L 353.00 96.75 L 353.75 96.75 L 354.00 97.75 L 355.00 98.00 L 355.00 99.75 L 356.00 100.00 L 356.00 101.75 L 357.00 102.00 L 357.00 104.75 L 358.00 105.00 L 358.00 109.75 L 358.75 109.75 L 358.75 105.00 L 357.75 104.75 L 357.75 102.00 L 356.75 101.75 L 356.75 100.00 L 355.75 99.75 L 355.75 98.00 L 355.00 98.00 L 354.75 97.00 L 353.75 96.75 L 353.75 95.00 L 353.00 95.00 L 352.75 94.00 L 351.75 93.75 L 351.75 93.00 L 350.00 93.00 L 349.75 92.00 L 348.75 91.75 L 348.75 91.00 L 347.00 91.00 L 346.75 90.00 L 345.00 90.00 L 344.75 89.00 L 342.00 89.00 L 341.75 88.00 L 329.00 88.00 L 328.75 89.00 L 326.00 89.00 L 325.75 90.00 L 323.00 90.00 L 323.00 90.75 L 322.00 91.00 L 321.75 92.00 L 320.00 92.00 L 320.00 92.75 L 319.00 93.00 L 319.00 93.75 L 318.00 94.00 L 318.00 94.75 L 317.00 95.00 L 316.75 96.00 L 316.00 96.00 L 316.00 97.75 L 315.00 98.00 L 315.00 99.75 L 314.00 100.00 L 313.75 101.00 L 313.00 101.00 L 313.00 104.75 L 312.00 105.00 L 312.00 108.75 L 311.00 109.00 Z" fill="#6E6E6E" fill-rule="evenodd"/>
  <path d="M 277.00 88.00 L 277.00 88.75 L 288.75 88.75 L 289.00 89.75 L 292.75 89.75 L 293.00 90.75 L 294.75 90.75 L 295.00 91.75 L 296.75 91.75 L 297.00 92.75 L 297.75 92.75 L 298.00 93.75 L 298.75 93.75 L 299.00 94.75 L 299.75 94.75 L 300.00 95.75 L 300.75 95.75 L 301.00 96.75 L 302.00 97.00 L 302.00 98.75 L 303.00 99.00 L 303.00 100.75 L 304.00 101.00 L 304.00 102.75 L 303.00 103.00 L 302.75 104.00 L 295.00 104.00 L 294.75 102.00 L 293.75 101.75 L 293.75 100.00 L 293.00 100.00 L 292.75 99.00 L 292.00 99.00 L 291.75 98.00 L 290.75 97.75 L 290.75 97.00 L 289.00 97.00 L 288.75 96.00 L 287.00 96.00 L 286.75 95.00 L 280.00 95.00 L 279.75 96.00 L 277.00 96.00 L 277.00 96.75 L 276.00 97.00 L 275.75 98.00 L 274.00 98.00 L 274.00 98.75 L 273.00 99.00 L 273.00 99.75 L 272.00 100.00 L 271.75 101.00 L 271.00 101.00 L 271.00 102.75 L 270.00 103.00 L 270.00 105.75 L 269.00 106.00 L 269.00 108.75 L 268.00 109.00 L 268.00 118.75 L 269.00 119.00 L 269.00 122.75 L 270.00 123.00 L 270.00 124.75 L 270.75 124.75 L 271.00 125.75 L 271.75 125.75 L 272.00 126.75 L 272.75 126.75 L 273.00 127.75 L 273.75 127.75 L 274.00 128.75 L 274.75 128.75 L 275.00 129.75 L 276.00 130.00 L 276.00 130.75 L 278.75 130.75 L 279.00 131.75 L 287.75 131.75 L 287.75 131.00 L 279.00 131.00 L 278.75 130.00 L 277.00 130.00 L 276.75 129.00 L 275.75 128.75 L 275.75 128.00 L 274.00 128.00 L 273.75 127.00 L 273.00 127.00 L 272.75 126.00 L 271.75 125.75 L 271.75 124.00 L 270.75 123.75 L 270.75 122.00 L 269.75 121.75 L 269.75 119.00 L 268.75 118.75 L 268.75 109.00 L 269.75 108.75 L 269.75 106.00 L 270.75 105.75 L 270.75 103.00 L 271.75 102.75 L 272.00 101.75 L 272.75 101.75 L 272.75 100.00 L 273.75 99.75 L 274.00 98.75 L 275.75 98.75 L 276.00 97.75 L 277.75 97.75 L 278.00 96.75 L 279.75 96.75 L 280.00 95.75 L 286.75 95.75 L 287.00 96.75 L 288.75 96.75 L 289.00 97.75 L 290.75 97.75 L 291.00 98.75 L 292.00 99.00 L 292.00 100.75 L 292.75 100.75 L 293.00 101.75 L 294.00 102.00 L 294.00 103.75 L 294.75 103.75 L 295.00 104.75 L 302.75 104.75 L 303.00 103.75 L 304.75 103.75 L 304.75 100.00 L 304.00 100.00 L 303.75 99.00 L 302.75 98.75 L 302.75 97.00 L 302.00 97.00 L 301.75 96.00 L 300.75 95.75 L 300.75 94.00 L 300.00 94.00 L 299.75 93.00 L 298.00 93.00 L 297.75 92.00 L 297.00 92.00 L 296.75 91.00 L 295.75 90.75 L 295.75 90.00 L 293.00 90.00 L 292.75 89.00 L 290.00 89.00 L 289.75 88.00 Z" fill="#6E6E6E" fill-rule="evenodd"/>
  <path d="M 249.75 71.00 L 249.00 71.00 L 249.00 71.75 L 248.00 72.00 L 248.00 73.75 L 247.00 74.00 L 247.00 74.75 L 246.00 75.00 L 246.00 75.75 L 245.00 76.00 L 244.75 77.00 L 244.00 77.00 L 244.00 78.75 L 243.00 79.00 L 243.00 79.75 L 242.00 80.00 L 242.00 80.75 L 241.00 81.00 L 241.00 81.75 L 240.00 82.00 L 239.75 83.00 L 238.00 83.00 L 237.75 84.00 L 234.00 84.00 L 233.75 83.00 L 233.00 83.00 L 233.00 84.75 L 237.75 84.75 L 238.00 83.75 L 239.75 83.75 L 239.75 83.00 L 240.75 82.75 L 240.75 82.00 L 241.75 81.75 L 241.75 81.00 L 242.75 80.75 L 242.75 80.00 L 243.75 79.75 L 243.75 79.00 L 244.75 78.75 L 245.00 77.75 L 245.75 77.75 L 245.75 76.00 L 246.75 75.75 L 246.75 75.00 L 247.75 74.75 L 247.75 74.00 L 248.75 73.75 L 249.00 72.75 L 249.75 72.75 Z" fill="#6E6E6E" fill-rule="evenodd"/>
  <path d="M 242.75 70.00 L 242.00 70.00 L 241.75 71.00 L 240.00 71.00 L 240.00 71.75 L 239.00 72.00 L 239.00 73.75 L 238.00 74.00 L 238.00 75.75 L 237.00 76.00 L 237.00 77.75 L 236.00 78.00 L 235.75 79.00 L 235.00 79.00 L 235.00 80.75 L 234.00 81.00 L 234.00 81.75 L 234.75 81.75 L 234.75 81.00 L 235.75 80.75 L 235.75 79.00 L 236.75 78.75 L 237.00 77.75 L 237.75 77.75 L 237.75 76.00 L 238.75 75.75 L 238.75 74.00 L 239.75 73.75 L 239.75 73.00 L 240.75 72.75 L 240.75 72.00 L 241.75 71.75 L 241.75 71.00 L 242.75 70.75 Z" fill="#6E6E6E" fill-rule="evenodd"/>
</svg>