<svg xmlns="http://www.w3.org/2000/svg" viewBox="120 64 545 95" fill="none">
  <style>
    path[fill="#0E3B2E"] { fill: #FFFFFF; }
    path[fill="#D4A843"] { fill: #D4A843; }
    path[fill="#6E6E6E"] { fill: rgba(255,255,255,0.9); }
    path[fill="#B47A00"] { fill: #D4A843; }
  </style>
  <path d="M 409.00 132.00 L 409.00 136.75 L 409.75 136.75 L 410.00 137.75 L 442.75 137.75 L 442.75 131.00 L 410.00 131.00 L 410.00 131.75 Z" fill="#0E3B2E" fill-rule="evenodd"/>
  <path d="M 217.00 131.00 L 217.00 137.75 L 252.75 137.75 L 252.75 131.00 Z" fill="#0E3B2E" fill-rule="evenodd"/>
  <path d="M 409.00 111.00 L 409.00 117.75 L 437.75 117.75 L 437.75 111.00 Z" fill="#0E3B2E" fill-rule="evenodd"/>
  <path d="M 217.00 111.00 L 217.00 116.75 L 217.75 116.75 L 218.00 117.75 L 226.75 117.75 L 227.00 116.75 L 237.75 116.75 L 238.00 117.75 L 238.75 117.75 L 239.00 116.75 L 243.75 116.75 L 244.00 117.75 L 244.75 117.75 L 244.75 117.00 L 245.75 116.75 L 245.75 111.00 L 245.00 111.00 L 244.75 110.00 L 218.00 110.00 L 218.00 110.75 Z" fill="#0E3B2E" fill-rule="evenodd"/>
  <path d="M 409.00 91.00 L 409.00 96.75 L 410.75 96.75 L 411.00 97.75 L 441.75 97.75 L 441.75 97.00 L 442.75 96.75 L 442.75 91.00 L 442.00 91.00 L 441.75 90.00 L 410.00 90.00 L 410.00 90.75 Z" fill="#0E3B2E" fill-rule="evenodd"/>
  <path d="M 370.00 90.00 L 370.00 137.75 L 401.75 137.75 L 401.75 131.00 L 379.00 131.00 L 378.75 130.00 L 377.75 129.75 L 377.75 90.00 Z" fill="#0E3B2E" fill-rule="evenodd"/>
  <path d="M 217.00 90.00 L 217.00 96.75 L 251.75 96.75 L 251.75 90.00 Z" fill="#0E3B2E" fill-rule="evenodd"/>
  <path d="M 329.00 89.00 L 328.75 90.00 L 326.00 90.00 L 325.75 91.00 L 324.00 91.00 L 323.75 92.00 L 322.00 92.00 L 322.00 92.75 L 321.00 93.00 L 321.00 93.75 L 320.00 94.00 L 320.00 94.75 L 319.00 95.00 L 319.00 95.75 L 318.00 96.00 L 318.00 96.75 L 317.00 97.00 L 316.75 98.00 L 316.00 98.00 L 316.00 99.75 L 315.00 100.00 L 315.00 101.75 L 314.00 102.00 L 314.00 104.75 L 313.00 105.00 L 313.00 108.75 L 312.00 109.00 L 312.00 120.75 L 313.00 121.00 L 313.00 123.75 L 314.00 124.00 L 314.00 126.75 L 315.00 127.00 L 315.00 128.75 L 315.75 128.75 L 316.00 129.75 L 316.75 129.75 L 317.00 130.75 L 317.75 130.75 L 318.00 131.75 L 318.75 131.75 L 319.00 132.75 L 319.75 132.75 L 320.00 133.75 L 320.75 133.75 L 321.00 134.75 L 322.00 135.00 L 322.00 135.75 L 323.75 135.75 L 324.00 136.75 L 326.75 136.75 L 327.00 137.75 L 332.75 137.75 L 333.00 138.75 L 337.75 138.75 L 338.00 137.75 L 342.75 137.75 L 343.00 136.75 L 345.75 136.75 L 346.00 135.75 L 347.75 135.75 L 347.75 135.00 L 348.75 134.75 L 349.00 133.75 L 350.75 133.75 L 350.75 133.00 L 351.75 132.75 L 351.75 132.00 L 352.75 131.75 L 353.00 130.75 L 353.75 130.75 L 353.75 129.00 L 354.75 128.75 L 355.00 127.75 L 355.75 127.75 L 355.75 125.00 L 356.75 124.75 L 356.75 123.00 L 357.75 122.75 L 357.75 118.00 L 358.75 117.75 L 358.75 117.00 L 357.75 116.75 L 357.75 115.00 L 358.75 114.75 L 358.75 110.00 L 357.75 109.75 L 357.75 105.00 L 356.75 104.75 L 356.75 102.00 L 355.75 101.75 L 355.75 100.00 L 354.75 99.75 L 354.75 98.00 L 354.00 98.00 L 353.75 97.00 L 353.00 97.00 L 352.75 96.00 L 352.00 96.00 L 351.75 95.00 L 351.00 95.00 L 350.75 94.00 L 350.00 94.00 L 349.75 93.00 L 348.75 92.75 L 348.75 92.00 L 347.00 92.00 L 346.75 91.00 L 345.00 91.00 L 344.75 90.00 L 342.00 90.00 L 341.75 89.00 Z M 332.00 94.75 L 337.75 94.75 L 338.00 95.75 L 340.75 95.75 L 341.00 96.75 L 342.75 96.75 L 343.00 97.75 L 344.00 98.00 L 344.00 98.75 L 345.75 98.75 L 346.00 100.75 L 346.75 100.75 L 347.00 101.75 L 348.00 102.00 L 348.00 103.75 L 349.00 104.00 L 349.00 106.75 L 350.00 107.00 L 350.00 120.75 L 349.00 121.00 L 349.00 123.75 L 348.00 124.00 L 348.00 125.75 L 347.00 126.00 L 347.00 126.75 L 346.00 127.00 L 346.00 127.75 L 345.00 128.00 L 345.00 128.75 L 344.00 129.00 L 344.00 129.75 L 343.00 130.00 L 342.75 131.00 L 340.00 131.00 L 339.75 132.00 L 331.00 132.00 L 330.75 131.00 L 328.00 131.00 L 327.75 130.00 L 326.00 130.00 L 325.75 129.00 L 325.00 129.00 L 324.75 128.00 L 324.00 128.00 L 323.75 127.00 L 322.75 126.75 L 322.75 125.00 L 321.75 124.75 L 321.75 123.00 L 320.75 122.75 L 320.75 118.00 L 319.75 117.75 L 319.75 112.00 L 320.75 111.75 L 320.75 106.00 L 321.75 105.75 L 321.75 103.00 L 322.75 102.75 L 322.75 101.00 L 323.75 100.75 L 323.75 100.00 L 324.75 99.75 L 324.75 99.00 L 325.75 98.75 L 325.75 98.00 L 326.75 97.75 L 327.00 96.75 L 328.75 96.75 L 329.00 95.75 L 331.75 95.75 Z" fill="#0E3B2E" fill-rule="evenodd"/>
  <path d="M 271.00 91.00 L 271.00 91.75 L 270.00 92.00 L 270.00 92.75 L 269.00 93.00 L 268.75 94.00 L 267.00 94.00 L 267.00 94.75 L 266.00 95.00 L 265.75 96.00 L 265.00 96.00 L 265.00 97.75 L 264.00 98.00 L 263.75 99.00 L 263.00 99.00 L 263.00 100.75 L 262.00 101.00 L 262.00 103.75 L 261.00 104.00 L 261.00 106.75 L 260.00 107.00 L 260.00 121.75 L 261.00 122.00 L 261.00 124.75 L 262.00 125.00 L 262.00 126.75 L 263.00 127.00 L 263.00 128.75 L 264.00 129.00 L 264.00 130.75 L 264.75 130.75 L 265.00 131.75 L 265.75 131.75 L 266.00 132.75 L 266.75 132.75 L 267.00 133.75 L 268.00 134.00 L 268.00 134.75 L 269.75 134.75 L 270.00 135.75 L 271.75 135.75 L 272.00 136.75 L 274.75 136.75 L 275.00 137.75 L 278.75 137.75 L 279.00 138.75 L 288.75 138.75 L 289.00 137.75 L 292.75 137.75 L 293.00 136.75 L 294.75 136.75 L 295.00 135.75 L 296.75 135.75 L 296.75 135.00 L 297.75 134.75 L 297.75 134.00 L 298.75 133.75 L 298.75 133.00 L 299.75 132.75 L 299.75 132.00 L 300.75 131.75 L 301.00 130.75 L 301.75 130.75 L 301.75 129.00 L 302.75 128.75 L 303.00 127.75 L 303.75 127.75 L 303.75 125.00 L 304.75 124.75 L 304.75 124.00 L 304.00 124.00 L 303.75 123.00 L 297.00 123.00 L 297.00 123.75 L 296.00 124.00 L 296.00 125.75 L 295.00 126.00 L 295.00 126.75 L 294.00 127.00 L 294.00 127.75 L 293.00 128.00 L 293.00 128.75 L 292.00 129.00 L 292.00 129.75 L 291.00 130.00 L 290.75 131.00 L 288.00 131.00 L 287.75 132.00 L 279.00 132.00 L 278.75 131.00 L 276.00 131.00 L 275.75 130.00 L 275.00 130.00 L 274.75 129.00 L 274.00 129.00 L 273.75 128.00 L 273.00 128.00 L 272.75 127.00 L 272.00 127.00 L 271.75 126.00 L 271.00 126.00 L 270.75 125.00 L 269.75 124.75 L 269.75 123.00 L 268.75 122.75 L 268.75 119.00 L 267.75 118.75 L 267.75 109.00 L 268.75 108.75 L 268.75 106.00 L 269.75 105.75 L 269.75 103.00 L 270.75 102.75 L 270.75 101.00 L 271.75 100.75 L 271.75 100.00 L 272.75 99.75 L 272.75 99.00 L 273.75 98.75 L 274.00 97.75 L 275.75 97.75 L 275.75 97.00 L 276.75 96.75 L 277.00 95.75 L 279.75 95.75 L 280.00 94.75 L 286.75 94.75 L 287.00 95.75 L 288.75 95.75 L 289.00 96.75 L 290.75 96.75 L 291.00 97.75 L 291.75 97.75 L 292.00 98.75 L 292.75 98.75 L 293.00 99.75 L 294.00 100.00 L 294.00 101.75 L 295.00 102.00 L 295.00 103.75 L 302.75 103.75 L 302.75 103.00 L 303.75 102.75 L 303.75 101.00 L 302.75 100.75 L 302.75 99.00 L 301.75 98.75 L 301.75 97.00 L 301.00 97.00 L 300.75 96.00 L 300.00 96.00 L 299.75 95.00 L 299.00 95.00 L 298.75 94.00 L 298.00 94.00 L 297.75 93.00 L 296.75 92.75 L 296.75 92.00 L 295.00 92.00 L 294.75 91.00 L 293.00 91.00 L 292.75 90.00 L 289.00 90.00 L 288.75 89.00 L 276.00 89.00 L 275.75 90.00 L 274.00 90.00 L 273.75 91.00 Z" fill="#0E3B2E" fill-rule="evenodd"/>
  <path d="M 248.75 71.00 L 242.00 71.00 L 242.00 71.75 L 241.00 72.00 L 241.00 72.75 L 240.00 73.00 L 239.75 74.00 L 239.00 74.00 L 239.00 75.75 L 238.00 76.00 L 238.00 77.75 L 237.00 78.00 L 236.75 79.00 L 236.00 79.00 L 236.00 80.75 L 235.00 81.00 L 234.75 82.00 L 234.00 82.00 L 234.00 83.75 L 237.75 83.75 L 238.00 82.75 L 239.75 82.75 L 239.75 82.00 L 240.75 81.75 L 240.75 81.00 L 241.75 80.75 L 241.75 80.00 L 242.75 79.75 L 243.00 78.75 L 243.75 78.75 L 243.75 77.00 L 244.75 76.75 L 244.75 76.00 L 245.75 75.75 L 245.75 75.00 L 246.75 74.75 L 247.00 73.75 L 247.75 73.75 L 247.75 72.00 L 248.75 71.75 Z" fill="#0E3B2E" fill-rule="evenodd"/>
  <path d="M 599.75 92.00 L 597.00 92.00 L 596.75 91.00 L 567.00 91.00 L 567.00 92.75 L 566.00 93.00 L 566.00 94.75 L 567.00 95.00 L 567.00 137.75 L 574.75 137.75 L 574.75 121.00 L 575.75 120.75 L 576.00 119.75 L 592.75 119.75 L 593.00 118.75 L 596.75 118.75 L 597.00 117.75 L 599.75 117.75 L 599.75 117.00 L 600.75 116.75 L 601.00 115.75 L 602.75 115.75 L 602.75 114.00 L 603.75 113.75 L 604.00 112.75 L 604.75 112.75 L 604.75 111.00 L 605.75 110.75 L 605.75 107.00 L 606.75 106.75 L 606.75 103.00 L 605.75 102.75 L 605.75 99.00 L 604.75 98.75 L 604.75 97.00 L 604.00 97.00 L 603.75 96.00 L 602.75 95.75 L 602.75 94.00 L 601.00 94.00 L 600.75 93.00 L 599.75 92.75 Z M 574.75 98.00 L 578.75 97.75 L 579.00 96.75 L 579.75 96.75 L 580.00 97.75 L 580.75 97.75 L 581.00 96.75 L 582.75 96.75 L 583.00 97.75 L 593.75 97.75 L 594.00 98.75 L 594.75 98.75 L 595.00 99.75 L 595.75 99.75 L 596.00 100.75 L 596.75 100.75 L 597.00 101.75 L 598.00 102.00 L 598.00 108.75 L 597.00 109.00 L 597.00 109.75 L 596.00 110.00 L 596.00 110.75 L 595.00 111.00 L 594.75 112.00 L 593.00 112.00 L 592.75 113.00 L 576.00 113.00 L 575.75 112.00 L 574.75 111.75 Z" fill="#B47A00" fill-rule="evenodd"/>
  <path d="M 517.00 91.00 L 517.00 96.75 L 517.75 96.75 L 518.00 97.75 L 526.75 97.75 L 527.00 96.75 L 529.75 96.75 L 530.00 97.75 L 534.75 97.75 L 535.00 96.75 L 538.75 96.75 L 539.00 97.75 L 544.00 98.00 L 544.00 100.75 L 543.00 101.00 L 543.00 101.75 L 542.00 102.00 L 542.00 102.75 L 541.00 103.00 L 541.00 103.75 L 540.00 104.00 L 540.00 104.75 L 539.00 105.00 L 539.00 105.75 L 538.00 106.00 L 538.00 106.75 L 537.00 107.00 L 537.00 107.75 L 536.00 108.00 L 536.00 108.75 L 535.00 109.00 L 535.00 109.75 L 534.00 110.00 L 534.00 110.75 L 533.00 111.00 L 533.00 111.75 L 532.00 112.00 L 532.00 112.75 L 531.00 113.00 L 531.00 113.75 L 530.00 114.00 L 530.00 114.75 L 529.00 115.00 L 528.75 116.00 L 528.00 116.00 L 528.00 117.75 L 528.75 117.75 L 529.00 118.75 L 530.75 118.75 L 531.00 119.75 L 537.75 119.75 L 538.00 120.75 L 540.75 120.75 L 541.00 121.75 L 542.75 121.75 L 543.00 122.75 L 544.75 122.75 L 545.00 123.75 L 545.75 123.75 L 546.00 124.75 L 547.00 125.00 L 547.00 126.75 L 548.00 127.00 L 548.00 134.75 L 547.00 135.00 L 547.00 136.75 L 546.00 137.00 L 546.00 137.75 L 545.00 138.00 L 544.75 139.00 L 543.00 139.00 L 543.00 139.75 L 542.00 140.00 L 541.75 141.00 L 538.00 141.00 L 537.75 142.00 L 531.00 142.00 L 530.75 141.00 L 526.00 141.00 L 525.75 140.00 L 524.00 140.00 L 523.75 139.00 L 522.75 138.75 L 522.75 138.00 L 521.00 138.00 L 520.75 136.00 L 520.00 136.00 L 519.75 135.00 L 518.00 135.00 L 517.75 134.00 L 514.00 134.00 L 513.75 135.00 L 511.00 135.00 L 511.00 137.75 L 511.75 137.75 L 512.00 138.75 L 513.00 139.00 L 513.00 140.75 L 513.75 140.75 L 514.00 141.75 L 514.75 141.75 L 515.00 142.75 L 515.75 142.75 L 516.00 143.75 L 517.00 144.00 L 517.00 144.75 L 518.75 144.75 L 519.00 145.75 L 520.00 146.00 L 520.00 146.75 L 521.75 146.75 L 522.00 147.75 L 525.75 147.75 L 526.00 148.75 L 530.75 148.75 L 531.00 149.75 L 537.75 149.75 L 538.00 148.75 L 542.75 148.75 L 543.00 147.75 L 545.75 147.75 L 546.00 146.75 L 547.75 146.75 L 547.75 146.00 L 548.75 145.75 L 549.00 144.75 L 550.75 144.75 L 550.75 144.00 L 551.75 143.75 L 552.00 142.75 L 552.75 142.75 L 552.75 141.00 L 553.75 140.75 L 554.00 139.75 L 554.75 139.75 L 554.75 138.00 L 555.75 137.75 L 555.75 135.00 L 556.75 134.75 L 556.75 125.00 L 555.75 124.75 L 555.75 122.00 L 555.00 122.00 L 554.75 121.00 L 554.00 121.00 L 553.75 120.00 L 553.00 120.00 L 552.75 119.00 L 551.75 118.75 L 551.75 118.00 L 550.00 118.00 L 549.75 117.00 L 548.00 117.00 L 547.75 116.00 L 546.00 116.00 L 545.75 115.00 L 544.00 115.00 L 543.75 114.00 L 542.75 113.75 L 542.75 112.00 L 543.75 111.75 L 543.75 110.00 L 544.75 109.75 L 544.75 109.00 L 545.75 108.75 L 545.75 108.00 L 546.75 107.75 L 546.75 107.00 L 547.75 106.75 L 547.75 106.00 L 548.75 105.75 L 548.75 105.00 L 549.75 104.75 L 549.75 104.00 L 550.75 103.75 L 550.75 103.00 L 551.75 102.75 L 551.75 102.00 L 552.75 101.75 L 552.75 101.00 L 553.75 100.75 L 553.75 100.00 L 554.75 99.75 L 555.00 98.75 L 555.75 98.75 L 555.75 93.00 L 554.75 92.75 L 554.75 91.00 Z" fill="#B47A00" fill-rule="evenodd"/>
  <path d="M 469.00 91.00 L 469.00 96.75 L 472.75 96.75 L 473.00 97.75 L 483.75 97.75 L 484.00 98.75 L 485.00 99.00 L 485.00 137.75 L 492.75 137.75 L 492.75 134.00 L 493.75 133.75 L 493.75 99.00 L 494.75 98.75 L 495.00 97.75 L 503.75 97.75 L 504.00 96.75 L 506.75 96.75 L 507.00 97.75 L 507.75 97.75 L 507.75 97.00 L 508.75 96.75 L 508.75 91.00 Z" fill="#B47A00" fill-rule="evenodd"/>
</svg>