<svg xmlns="http://www.w3.org/2000/svg" width="451" height="164" viewBox="0 0 451 164">
<g shape-rendering="geometricPrecision">
<path d="M 166.00 32.50 L 157.50 33.50 L 151.00 36.33 L 144.83 43.00 L 141.67 51.67 L 141.33 63.17 L 143.50 70.83 L 150.83 79.17 L 158.17 82.00 L 170.67 82.00 L 178.67 78.17 L 184.17 72.00 L 187.33 61.83 L 186.50 49.17 L 182.50 40.83 L 175.67 35.17 Z" fill="#0E2A1D"/>
<path d="M 104.67 33.67 L 95.17 39.67 L 90.83 46.50 L 89.00 56.17 L 90.67 69.83 L 96.33 77.67 L 101.83 80.83 L 111.17 82.67 L 120.33 82.00 L 128.83 76.50 L 133.33 67.83 L 126.00 67.17 L 121.33 73.50 L 115.50 76.17 L 106.00 75.00 L 100.33 70.50 L 97.67 65.00 L 97.83 50.33 L 102.83 42.17 L 109.50 39.00 L 118.83 40.67 L 124.83 48.17 L 131.67 47.33 L 132.83 45.67 L 128.83 39.17 L 123.33 35.00 L 113.50 32.83 Z" fill="#0E2A1D"/>
<path d="M 199.50 34.17 L 199.00 81.50 L 230.83 81.67 L 230.50 75.00 L 207.50 74.17 L 206.83 35.17 Z" fill="#0E2A1D"/>
<path d="M 238.33 35.50 L 238.33 40.50 L 239.83 41.33 L 269.83 41.67 L 271.67 39.83 L 270.33 33.83 L 239.83 33.83 Z" fill="#0E2A1D"/>
<path d="M 81.50 75.50 L 46.67 75.00 L 45.83 79.83 L 46.83 82.00 L 80.67 82.00 Z" fill="#0E2A1D"/>
<path d="M 46.00 34.83 L 47.00 41.00 L 79.67 41.17 L 80.83 38.83 L 79.50 33.83 Z" fill="#0E2A1D"/>
<path d="M 272.17 76.00 L 239.00 75.17 L 238.33 80.83 L 243.33 82.17 L 270.83 82.17 Z" fill="#0E2A1D"/>
<path d="M 237.83 56.67 L 239.17 61.83 L 267.17 61.17 L 267.17 56.00 L 265.67 54.83 L 239.00 54.83 Z" fill="#0E2A1D"/>
<path d="M 46.17 55.00 L 46.67 61.33 L 74.67 60.50 L 73.83 54.50 Z" fill="#0E2A1D"/>
<path d="M 77.83 15.50 L 70.50 15.50 L 63.17 28.17 L 68.00 27.00 Z" fill="#0E2A1D"/>
<path d="M 430.83 37.83 L 421.33 34.67 L 395.83 35.67 L 396.50 82.00 L 403.50 81.33 L 404.83 64.00 L 421.67 63.50 L 431.50 59.67 L 434.00 55.83 L 435.50 46.83 Z" fill="#906615"/>
<path d="M 346.33 35.17 L 345.67 38.50 L 347.00 41.33 L 368.50 41.33 L 373.00 42.83 L 357.33 61.67 L 371.67 66.00 L 376.17 70.33 L 377.33 75.50 L 374.33 82.00 L 366.33 85.67 L 354.67 84.33 L 346.50 77.83 L 340.50 79.33 L 340.50 82.17 L 345.17 87.83 L 354.67 92.33 L 363.50 93.67 L 376.67 90.83 L 384.67 81.83 L 386.00 70.83 L 383.00 64.67 L 372.67 58.17 L 372.00 56.17 L 384.33 43.00 L 384.00 35.67 L 379.17 34.50 Z" fill="#906615"/>
<path d="M 298.33 35.00 L 298.67 40.83 L 311.83 41.67 L 314.00 43.67 L 314.33 81.17 L 321.50 81.83 L 322.83 43.50 L 324.33 41.83 L 337.50 41.17 L 337.83 35.17 Z" fill="#906615"/>
<path d="M 163.33 31.83 L 153.00 34.33 L 146.17 39.67 L 141.17 49.83 L 140.33 62.33 L 142.50 70.67 L 148.33 78.50 L 156.83 82.50 L 165.50 83.50 L 173.67 81.83 L 179.17 78.83 L 183.33 74.67 L 187.33 66.17 L 188.17 54.33 L 186.50 46.50 L 181.00 38.00 L 173.17 33.33 Z" fill="#757A6F"/>
<path d="M 429.50 36.33 L 423.83 34.33 L 395.17 35.00 L 395.67 82.67 L 404.33 81.83 L 405.33 64.17 L 422.67 64.00 L 429.50 61.83 L 433.83 57.67 L 435.83 52.00 L 435.67 45.00 L 434.00 40.33 Z" fill="#757A6F"/>
<path d="M 345.67 34.50 L 346.00 41.83 L 370.00 41.83 L 372.83 42.83 L 372.50 44.50 L 356.83 59.50 L 356.33 61.83 L 358.17 63.83 L 371.17 66.17 L 376.00 70.83 L 377.00 75.33 L 375.00 80.83 L 368.67 84.83 L 362.33 85.33 L 355.17 84.00 L 351.33 81.83 L 346.67 76.67 L 340.33 78.50 L 340.17 82.50 L 348.00 90.33 L 357.83 93.83 L 369.00 93.83 L 376.83 91.17 L 381.50 87.33 L 385.17 82.00 L 386.67 76.50 L 386.50 70.17 L 382.67 63.33 L 372.83 58.00 L 372.17 56.50 L 384.83 43.17 L 384.67 34.83 Z" fill="#757A6F"/>
<path d="M 107.83 32.17 L 100.33 34.50 L 92.00 42.17 L 88.67 51.33 L 89.00 67.00 L 92.33 74.17 L 97.50 79.67 L 109.17 83.50 L 120.50 82.83 L 129.33 77.17 L 134.33 67.50 L 125.67 66.33 L 123.50 70.17 L 118.00 74.67 L 111.50 75.67 L 106.33 74.33 L 101.17 70.33 L 97.83 61.67 L 98.50 51.00 L 101.17 45.17 L 109.67 39.83 L 114.67 39.83 L 119.00 41.67 L 124.50 49.00 L 131.83 48.17 L 133.83 46.17 L 130.67 40.17 L 124.33 34.67 L 115.50 32.17 Z" fill="#757A6F"/>
<path d="M 337.50 34.00 L 300.00 34.17 L 297.33 35.33 L 298.17 41.67 L 312.33 42.00 L 313.67 43.50 L 314.50 82.67 L 323.00 81.83 L 323.33 43.33 L 324.67 42.00 L 338.00 41.67 Z" fill="#757A6F"/>
<path d="M 198.67 33.50 L 198.00 81.83 L 231.50 82.33 L 232.17 75.67 L 231.00 74.17 L 208.17 73.67 L 207.67 34.83 L 206.00 33.17 Z" fill="#757A6F"/>
<path d="M 45.17 34.83 L 45.33 40.67 L 46.67 41.83 L 80.17 42.00 L 81.50 40.33 L 81.33 34.00 L 79.83 33.00 L 46.67 33.00 Z" fill="#757A6F"/>
<path d="M 237.67 34.50 L 237.67 41.00 L 238.67 42.17 L 271.00 42.33 L 272.33 41.17 L 272.50 35.33 L 270.83 33.00 L 239.00 33.00 Z" fill="#757A6F"/>
<path d="M 45.33 75.67 L 45.17 81.17 L 46.50 82.67 L 82.17 81.83 L 81.50 74.00 L 47.00 74.00 Z" fill="#757A6F"/>
<path d="M 237.67 75.33 L 237.67 81.67 L 238.67 82.67 L 271.67 82.83 L 272.83 81.83 L 272.83 75.33 L 271.33 74.17 L 239.17 74.17 Z" fill="#757A6F"/>
<path d="M 237.00 55.83 L 238.17 62.50 L 267.00 62.50 L 268.00 61.50 L 268.00 55.50 L 266.17 54.00 L 238.83 54.00 Z" fill="#757A6F"/>
<path d="M 45.33 55.33 L 45.33 60.33 L 46.67 62.17 L 73.83 62.17 L 75.67 60.67 L 75.50 54.67 L 74.17 53.67 L 46.50 53.67 Z" fill="#757A6F"/>
<path d="M 158.67 112.83 L 154.67 115.33 L 153.33 120.50 L 155.83 126.00 L 160.67 127.00 L 165.33 123.83 L 165.83 118.33 L 163.50 114.17 Z" fill="#757A6F"/>
<path d="M 242.33 113.17 L 239.17 116.00 L 238.50 122.17 L 241.67 126.50 L 246.50 126.83 L 250.17 123.67 L 250.50 117.50 L 246.50 113.17 Z" fill="#757A6F"/>
<path d="M 103.83 113.17 L 103.33 126.33 L 108.33 127.00 L 112.00 125.50 L 113.83 122.67 L 113.50 116.33 L 109.00 113.00 Z" fill="#757A6F"/>
<path d="M 78.83 15.33 L 69.83 15.00 L 62.17 28.50 L 68.67 27.50 Z" fill="#757A6F"/>
<path d="M 184.83 113.17 L 184.50 126.17 L 186.50 125.50 L 186.83 119.00 L 191.67 126.67 L 196.33 118.50 L 196.50 125.83 L 197.83 126.67 L 198.33 113.50 L 195.83 113.67 L 191.17 122.00 L 187.83 113.67 Z" fill="#757A6F"/>
<path d="M 67.00 113.00 L 65.67 120.00 L 66.17 126.00 L 67.50 126.17 L 68.00 121.33 L 69.67 120.50 L 75.33 126.67 L 74.00 121.00 L 75.83 117.50 L 75.17 114.50 L 72.17 113.00 Z" fill="#757A6F"/>
<path d="M 379.00 113.17 L 378.67 126.50 L 380.00 125.83 L 380.00 121.67 L 381.50 120.50 L 383.17 120.67 L 387.67 126.50 L 386.50 122.17 L 388.00 118.67 L 387.50 114.67 L 384.17 113.17 Z" fill="#757A6F"/>
<path d="M 171.00 113.17 L 170.67 126.33 L 172.17 125.83 L 173.50 120.17 L 175.50 120.67 L 178.17 126.00 L 179.50 126.17 L 178.17 122.00 L 180.17 117.50 L 179.17 114.67 L 176.83 113.33 Z" fill="#757A6F"/>
<path d="M 39.00 113.33 L 38.67 126.33 L 40.17 125.83 L 41.00 118.83 L 47.00 126.33 L 48.67 126.33 L 49.00 114.00 L 47.33 113.50 L 46.67 120.17 L 45.67 120.50 L 41.00 114.17 Z" fill="#757A6F"/>
<path d="M 255.50 113.33 L 255.33 125.83 L 256.50 125.33 L 256.83 118.83 L 258.17 118.17 L 263.17 125.50 L 265.67 126.67 L 266.00 113.67 L 264.50 114.00 L 264.33 121.17 L 263.00 122.33 L 257.33 114.00 Z" fill="#757A6F"/>
<path d="M 353.17 113.17 L 347.50 125.83 L 348.50 126.50 L 350.67 123.67 L 354.50 123.17 L 358.50 126.83 L 355.00 115.17 Z" fill="#757A6F"/>
<path d="M 208.33 113.33 L 202.67 126.17 L 204.33 126.50 L 206.50 123.33 L 211.00 123.00 L 214.17 126.50 L 214.67 125.33 L 210.17 114.33 Z" fill="#757A6F"/>
<path d="M 365.00 114.17 L 362.17 119.67 L 363.17 124.17 L 366.83 127.00 L 373.00 126.50 L 373.00 120.17 L 368.67 120.83 L 371.33 122.67 L 369.33 125.83 L 366.83 125.67 L 364.17 121.17 L 364.33 118.17 L 366.33 115.50 L 369.17 115.00 L 372.00 116.50 L 372.00 114.67 L 369.50 113.33 Z" fill="#757A6F"/>
<path d="M 400.67 109.00 L 398.67 109.33 L 396.00 113.67 L 393.00 114.33 L 393.83 127.17 L 400.83 126.50 L 395.83 125.50 L 395.00 123.50 L 395.33 121.00 L 399.83 120.17 L 399.33 119.00 L 396.17 118.67 L 395.17 116.00 L 400.00 114.00 L 398.33 111.83 Z" fill="#757A6F"/>
<path d="M 81.50 113.00 L 80.17 115.00 L 80.50 126.00 L 81.83 127.00 L 88.17 126.83 L 88.17 125.83 L 82.67 124.83 L 82.50 122.00 L 87.00 119.67 L 83.00 119.00 L 82.17 116.33 L 83.83 114.67 L 88.83 113.50 Z" fill="#757A6F"/>
<path d="M 119.17 113.17 L 119.00 126.50 L 126.83 126.67 L 120.67 124.00 L 121.50 121.00 L 125.67 120.00 L 121.17 118.17 L 121.50 115.17 L 126.83 113.33 Z" fill="#757A6F"/>
<path d="M 408.17 113.00 L 406.00 114.67 L 406.50 126.33 L 413.83 127.00 L 414.00 125.67 L 408.67 124.50 L 408.50 121.00 L 412.83 119.50 L 408.67 118.33 L 407.83 116.17 L 409.17 114.50 L 413.17 114.50 L 414.00 113.17 Z" fill="#757A6F"/>
<path d="M 285.67 113.83 L 283.67 116.00 L 282.17 125.17 L 283.50 123.33 L 285.67 124.00 L 286.17 117.50 L 287.17 117.33 L 287.50 125.83 L 289.17 126.17 L 288.33 115.33 Z" fill="#757A6F"/>
<path d="M 26.33 113.17 L 25.83 126.50 L 33.33 126.67 L 27.50 124.67 L 27.67 121.33 L 30.67 119.50 L 27.50 118.17 L 27.33 116.00 L 28.33 114.67 L 33.17 114.50 L 33.67 113.50 Z" fill="#757A6F"/>
<path d="M 15.17 113.17 L 12.33 115.33 L 11.00 122.17 L 13.67 126.33 L 19.17 126.83 L 21.33 123.33 L 17.17 125.67 L 15.00 125.33 L 12.83 122.33 L 12.83 117.33 L 15.67 114.83 L 20.00 116.50 L 21.50 115.67 L 18.33 113.33 Z" fill="#757A6F"/>
<path d="M 148.33 113.00 L 140.83 113.67 L 141.50 126.17 L 142.83 125.50 L 143.17 121.17 L 147.67 119.83 L 143.33 118.33 L 143.50 115.00 L 148.50 114.17 Z" fill="#757A6F"/>
<path d="M 53.17 113.00 L 52.83 114.00 L 56.17 115.83 L 56.33 124.67 L 57.67 126.17 L 58.17 115.83 L 62.17 113.33 Z" fill="#757A6F"/>
<path d="M 217.67 113.17 L 217.67 114.33 L 221.50 115.67 L 221.67 125.00 L 222.83 126.67 L 223.50 115.83 L 227.33 113.67 Z" fill="#757A6F"/>
<path d="M 330.17 114.33 L 328.50 114.83 L 329.17 118.83 L 325.83 118.17 L 324.83 116.33 L 323.50 119.33 L 324.17 122.33 L 324.67 119.33 L 326.17 118.67 L 327.17 122.83 L 329.00 120.50 L 332.33 122.67 L 330.33 118.50 Z" fill="#757A6F"/>
<path d="M 292.50 113.67 L 291.33 116.50 L 294.17 117.17 L 294.17 125.67 L 296.83 126.50 L 297.50 125.00 L 294.83 123.00 L 295.00 116.67 L 296.33 114.33 Z" fill="#757A6F"/>
<path d="M 163.50 31.17 L 154.83 32.83 L 146.00 38.67 L 140.67 49.00 L 139.50 61.00 L 142.17 71.67 L 147.33 78.67 L 155.50 82.83 L 166.00 84.17 L 177.67 80.67 L 184.00 75.00 L 188.00 66.67 L 188.83 53.50 L 186.83 45.17 L 181.33 37.33 L 170.67 31.83 Z" fill="#BEBEAF"/>
<path d="M 345.33 33.33 L 344.17 36.00 L 345.50 42.83 L 371.17 43.50 L 355.83 58.83 L 355.17 61.00 L 357.83 64.83 L 368.67 66.17 L 372.00 68.00 L 375.33 72.00 L 375.83 77.00 L 371.67 82.33 L 363.00 84.33 L 354.17 82.50 L 348.50 76.17 L 346.17 75.50 L 340.33 77.33 L 338.50 79.17 L 339.67 83.67 L 346.50 90.67 L 356.83 94.67 L 370.00 94.67 L 377.50 91.83 L 381.67 88.67 L 385.83 83.00 L 387.50 71.33 L 384.00 63.17 L 373.50 56.33 L 385.67 43.83 L 385.50 34.00 Z" fill="#BEBEAF"/>
<path d="M 430.33 35.67 L 420.50 33.17 L 394.50 34.00 L 394.67 83.17 L 403.17 83.67 L 405.33 82.50 L 406.00 65.17 L 423.50 64.83 L 429.67 62.83 L 434.67 58.33 L 436.83 51.50 L 436.50 44.17 L 434.50 39.17 Z" fill="#BEBEAF"/>
<path d="M 106.83 31.67 L 101.50 33.17 L 96.00 36.67 L 90.33 43.83 L 87.50 54.67 L 88.50 67.83 L 93.00 76.17 L 100.33 81.83 L 111.17 84.33 L 121.83 83.17 L 127.33 80.00 L 131.67 75.50 L 134.67 70.00 L 134.83 67.00 L 125.83 65.50 L 122.67 70.00 L 117.33 74.17 L 107.83 74.17 L 102.33 70.50 L 99.67 66.00 L 98.33 58.83 L 99.00 51.83 L 103.50 43.83 L 110.67 40.50 L 115.00 40.67 L 119.50 42.83 L 124.00 49.67 L 133.33 48.50 L 134.67 46.17 L 131.00 39.50 L 125.33 34.33 L 115.33 31.33 Z" fill="#BEBEAF"/>
<path d="M 297.50 33.67 L 296.50 39.00 L 297.67 42.50 L 312.67 44.00 L 313.17 82.83 L 323.50 83.00 L 324.33 44.00 L 326.00 43.00 L 338.33 42.67 L 338.83 33.83 Z" fill="#BEBEAF"/>
<path d="M 198.00 33.00 L 197.17 82.17 L 199.17 83.17 L 232.50 82.67 L 233.00 75.67 L 231.33 73.33 L 208.50 72.83 L 208.17 33.67 L 205.83 32.50 Z" fill="#BEBEAF"/>
<path d="M 44.33 34.50 L 44.50 40.83 L 45.83 42.50 L 80.33 42.83 L 82.17 41.17 L 82.17 33.83 L 79.83 32.33 L 45.33 32.67 Z" fill="#BEBEAF"/>
<path d="M 236.83 34.33 L 237.00 41.33 L 238.33 43.00 L 270.83 43.17 L 273.17 41.17 L 273.17 34.67 L 271.33 32.33 L 239.17 32.17 Z" fill="#BEBEAF"/>
<path d="M 44.50 75.50 L 44.33 81.50 L 46.17 83.17 L 81.17 83.33 L 82.83 82.00 L 82.83 74.50 L 81.17 73.17 L 45.33 73.67 Z" fill="#BEBEAF"/>
<path d="M 299.17 114.17 L 300.83 124.67 L 302.00 123.83 L 303.00 118.17 L 304.67 122.33 L 306.33 120.83 L 307.83 121.67 L 308.67 119.17 L 311.00 121.00 L 313.67 121.17 L 311.33 125.33 L 307.33 124.00 L 307.00 125.83 L 308.17 126.67 L 333.33 126.17 L 333.00 121.17 L 330.00 113.33 L 321.50 114.33 L 314.67 112.83 L 302.33 114.33 L 300.67 113.17 Z" fill="#BEBEAF"/>
<path d="M 236.67 75.33 L 236.67 81.83 L 239.00 83.33 L 271.83 83.50 L 273.67 81.83 L 273.50 75.17 L 271.83 73.33 L 239.00 73.33 Z" fill="#BEBEAF"/>
<path d="M 236.17 55.67 L 236.50 62.00 L 238.50 63.33 L 267.33 63.33 L 268.83 61.17 L 268.83 55.33 L 267.17 53.33 L 238.00 53.50 Z" fill="#BEBEAF"/>
<path d="M 44.50 55.33 L 44.50 60.50 L 46.17 62.83 L 74.83 62.83 L 76.33 61.00 L 76.33 54.33 L 74.50 52.83 L 46.67 52.83 Z" fill="#BEBEAF"/>
<path d="M 297.33 114.17 L 294.83 112.67 L 292.00 112.83 L 290.50 117.33 L 288.00 113.17 L 283.67 114.17 L 281.17 126.67 L 282.83 127.00 L 284.67 124.50 L 286.67 127.00 L 291.83 127.00 L 292.33 125.33 L 290.17 123.83 L 291.17 121.83 L 293.17 122.33 L 294.00 126.83 L 297.67 127.00 L 298.33 125.00 L 295.67 122.83 L 295.83 116.83 Z" fill="#BEBEAF"/>
<path d="M 184.50 112.50 L 184.17 127.17 L 186.83 126.83 L 188.00 122.00 L 189.67 126.67 L 191.67 127.50 L 195.83 121.50 L 195.83 126.83 L 198.33 127.50 L 199.33 123.33 L 198.83 113.17 L 196.17 112.50 L 191.17 120.33 L 188.33 113.17 Z" fill="#BEBEAF"/>
<path d="M 161.17 112.33 L 155.00 113.83 L 152.50 119.50 L 153.83 124.83 L 158.67 127.83 L 164.17 126.17 L 166.33 123.00 L 166.00 116.50 Z" fill="#BEBEAF"/>
<path d="M 246.33 112.33 L 239.83 113.83 L 237.83 118.00 L 238.83 125.00 L 244.00 127.83 L 248.50 126.67 L 251.17 122.83 L 250.83 116.33 Z" fill="#BEBEAF"/>
<path d="M 112.00 113.50 L 108.67 112.33 L 103.17 112.83 L 102.67 126.33 L 103.67 127.67 L 110.33 127.17 L 113.67 124.67 L 114.83 119.00 Z" fill="#BEBEAF"/>
<path d="M 79.67 15.17 L 77.83 14.00 L 69.50 14.33 L 61.33 28.67 L 64.50 29.67 L 69.33 27.83 Z" fill="#BEBEAF"/>
<path d="M 195.17 143.50 L 195.33 151.67 L 196.50 152.67 L 199.17 149.50 L 202.67 148.17 L 205.67 149.33 L 206.17 147.17 L 209.50 146.33 L 210.67 144.17 L 212.33 149.83 L 216.17 150.17 L 217.33 149.00 L 213.83 147.83 L 217.67 146.00 L 217.67 143.17 L 216.00 142.17 L 211.50 143.17 L 206.17 142.33 L 204.50 144.50 L 201.50 142.33 L 196.67 142.00 Z" fill="#BEBEAF"/>
<path d="M 66.17 112.67 L 65.33 126.67 L 68.00 126.83 L 68.50 121.83 L 69.83 121.33 L 73.50 127.00 L 76.00 127.33 L 74.83 121.50 L 76.50 117.67 L 75.83 114.17 L 73.33 112.50 Z" fill="#BEBEAF"/>
<path d="M 38.33 112.83 L 38.00 127.17 L 40.50 127.17 L 41.50 120.50 L 46.33 126.83 L 49.17 127.17 L 49.50 113.17 L 46.83 113.00 L 46.17 118.67 L 45.17 118.83 L 40.50 112.67 Z" fill="#BEBEAF"/>
<path d="M 378.17 112.83 L 377.67 126.83 L 380.33 126.83 L 380.67 121.67 L 382.50 121.17 L 385.83 126.33 L 387.83 127.33 L 388.67 125.00 L 387.00 121.17 L 388.83 118.67 L 388.00 114.17 L 384.83 112.50 Z" fill="#BEBEAF"/>
<path d="M 255.17 112.67 L 254.17 116.00 L 255.00 126.83 L 257.17 126.50 L 257.50 120.83 L 258.50 120.33 L 264.17 127.50 L 266.17 127.50 L 266.50 113.00 L 263.67 113.50 L 263.67 120.00 L 262.67 120.50 L 257.83 113.33 Z" fill="#BEBEAF"/>
<path d="M 170.17 112.83 L 170.00 127.00 L 172.50 126.83 L 173.50 121.17 L 175.83 121.83 L 178.17 127.00 L 180.00 126.83 L 180.67 124.83 L 179.00 121.67 L 180.67 118.33 L 180.00 114.50 L 176.83 112.50 Z" fill="#BEBEAF"/>
<path d="M 412.33 108.50 L 410.50 108.83 L 409.67 111.50 L 405.17 114.33 L 405.67 125.50 L 406.83 127.50 L 415.50 126.83 L 414.50 124.83 L 409.17 123.83 L 409.33 121.50 L 414.33 120.00 L 413.67 118.50 L 408.67 117.17 L 409.17 115.67 L 413.67 115.33 L 415.00 114.00 Z" fill="#BEBEAF"/>
<path d="M 364.50 113.67 L 361.50 119.33 L 363.33 125.50 L 366.83 127.83 L 373.67 127.17 L 374.17 121.00 L 373.17 119.17 L 367.50 120.83 L 370.50 122.83 L 369.00 125.17 L 365.50 123.33 L 365.00 118.17 L 366.83 116.00 L 372.67 117.17 L 372.50 114.17 L 370.00 112.67 Z" fill="#BEBEAF"/>
<path d="M 400.83 108.50 L 398.67 108.67 L 395.50 112.67 L 392.33 114.17 L 392.33 126.17 L 393.83 128.00 L 402.00 126.83 L 395.83 124.00 L 396.33 121.17 L 399.67 121.17 L 400.83 120.00 L 396.00 117.00 L 396.83 115.67 L 401.33 114.83 L 399.33 112.50 L 401.67 110.50 Z" fill="#BEBEAF"/>
<path d="M 352.50 112.67 L 349.50 117.33 L 346.67 126.17 L 348.83 127.33 L 351.00 124.50 L 354.33 124.00 L 359.00 127.67 L 359.50 125.17 L 355.33 113.83 Z" fill="#BEBEAF"/>
<path d="M 208.00 112.67 L 206.17 114.50 L 202.17 126.83 L 204.33 127.50 L 206.33 124.33 L 210.67 123.67 L 212.67 127.00 L 215.00 127.17 L 215.83 125.67 L 213.00 121.33 L 210.50 113.50 Z" fill="#BEBEAF"/>
<path d="M 88.83 112.50 L 80.00 113.17 L 80.50 127.17 L 86.33 127.83 L 90.00 126.67 L 88.83 125.17 L 84.00 125.00 L 83.00 123.83 L 83.50 122.00 L 87.67 121.33 L 88.17 119.33 L 83.17 118.33 L 82.83 116.33 L 89.00 114.83 Z" fill="#BEBEAF"/>
<path d="M 119.00 112.50 L 118.00 113.50 L 118.00 126.50 L 120.17 127.67 L 127.83 127.00 L 127.17 125.17 L 121.50 123.83 L 122.17 121.50 L 126.83 120.17 L 126.00 118.67 L 122.33 118.33 L 122.00 115.83 L 127.00 115.00 L 127.83 113.17 Z" fill="#BEBEAF"/>
<path d="M 25.33 112.83 L 25.00 126.67 L 26.67 127.67 L 34.67 127.17 L 33.67 125.00 L 28.00 124.17 L 28.83 121.17 L 33.33 119.50 L 32.50 118.33 L 28.67 118.17 L 28.17 116.00 L 33.67 115.50 L 34.67 113.33 L 33.00 112.33 Z" fill="#BEBEAF"/>
<path d="M 178.33 144.17 L 179.67 150.17 L 186.83 149.17 L 189.00 150.00 L 190.00 144.00 L 191.50 144.50 L 191.50 149.67 L 193.50 148.50 L 192.67 142.50 L 188.17 142.33 L 186.00 144.33 L 182.83 142.17 Z" fill="#BEBEAF"/>
<path d="M 14.83 112.50 L 12.00 114.33 L 10.50 117.33 L 10.33 122.83 L 13.50 127.17 L 19.17 127.50 L 22.33 123.33 L 20.00 122.50 L 16.00 125.00 L 13.50 122.33 L 13.33 117.83 L 15.67 115.50 L 21.50 117.00 L 22.33 115.33 L 18.83 112.67 Z" fill="#BEBEAF"/>
<path d="M 240.67 144.33 L 240.50 148.67 L 242.83 150.17 L 250.67 149.50 L 251.50 147.00 L 253.00 147.17 L 252.83 149.33 L 255.17 149.00 L 254.83 143.83 L 253.50 142.67 L 249.83 142.83 L 249.00 147.83 L 246.67 141.83 L 242.50 141.83 Z" fill="#BEBEAF"/>
<path d="M 149.00 112.50 L 140.33 113.17 L 140.17 124.83 L 141.33 127.33 L 143.67 125.83 L 144.17 121.17 L 148.83 120.33 L 148.17 118.50 L 144.33 118.33 L 143.83 116.00 L 148.67 115.17 L 149.67 114.00 Z" fill="#BEBEAF"/>
<path d="M 217.50 112.50 L 216.83 115.00 L 220.83 116.33 L 221.00 126.00 L 222.83 127.67 L 224.17 125.67 L 224.17 116.33 L 228.50 113.67 L 226.67 112.33 Z" fill="#BEBEAF"/>
<path d="M 52.50 112.50 L 51.83 114.33 L 55.67 116.33 L 55.83 126.00 L 57.83 127.17 L 59.00 126.00 L 58.83 116.33 L 62.33 115.17 L 63.33 113.50 L 61.83 112.33 Z" fill="#BEBEAF"/>
<path d="M 232.17 112.50 L 231.00 113.67 L 231.17 126.17 L 233.33 127.67 L 234.50 115.17 L 234.00 112.83 Z" fill="#BEBEAF"/>
<path d="M 267.00 142.33 L 265.50 148.50 L 266.83 149.83 L 271.00 149.67 L 272.00 148.00 L 271.50 143.17 Z" fill="#BEBEAF"/>
<path d="M 228.67 139.50 L 228.33 141.00 L 230.00 142.17 L 228.67 148.67 L 230.33 149.67 L 236.17 149.33 L 236.00 147.83 L 231.50 147.83 L 231.83 146.17 L 233.83 146.67 L 235.50 145.17 L 234.17 141.67 L 231.50 143.83 L 230.83 140.00 Z" fill="#BEBEAF"/>
<path d="M 149.17 141.17 L 148.17 142.67 L 148.83 149.50 L 154.00 149.67 L 155.50 146.50 L 155.17 143.50 L 152.17 142.83 L 153.17 147.17 L 151.00 148.17 L 150.33 144.00 L 151.33 142.17 Z" fill="#BEBEAF"/>
<path d="M 257.83 142.33 L 257.50 149.17 L 259.17 149.33 L 259.67 144.83 L 261.50 144.17 L 263.33 149.33 L 263.83 142.67 Z" fill="#BEBEAF"/>
</g></svg>